<svg xmlns="http://www.w3.org/2000/svg" viewBox="0 0 156.82 121.46"><defs><style>.cls-1{fill:#fff;}.cls-2,.cls-3{fill:#f9b702;}.cls-2{stroke:#f9b811;stroke-miterlimit:10;}</style></defs><g id="Слой_2" data-name="Слой 2"><g id="Layer_1" data-name="Layer 1"><path class="cls-1" d="M112.89,121.46H44.05a1.12,1.12,0,0,1-1-.55L8.66,61.29a1.12,1.12,0,0,1,0-1.12L43.08.56a1.11,1.11,0,0,1,1-.56h68.84a1.11,1.11,0,0,1,1,.56l34.42,59.61a1.12,1.12,0,0,1,0,1.12l-34.42,59.62A1.12,1.12,0,0,1,112.89,121.46Zm-68.2-2.23h67.55L146,60.73,112.24,2.23H44.69L10.91,60.73Z"/><path class="cls-2" d="M108.87,113.8H48.06a.43.43,0,0,1-.36-.21L17.3,60.94a.45.45,0,0,1,0-.42L47.7,7.87a.43.43,0,0,1,.36-.21h60.81a.42.42,0,0,1,.36.21l30.4,52.65a.45.45,0,0,1,0,.42l-30.4,52.65A.42.42,0,0,1,108.87,113.8ZM48.31,113h60.31l30.16-52.24L108.62,8.49H48.31L18.15,60.73Z"/><path class="cls-3" d="M137.8,93.27a.6.6,0,0,1-.28-.08.55.55,0,0,1-.2-.76l18.3-31.7L137.32,29a.55.55,0,1,1,1-.55l18.46,32a.56.56,0,0,1,0,.56L138.28,93A.55.55,0,0,1,137.8,93.27Z"/><path class="cls-3" d="M139.67,93.66a2.09,2.09,0,1,1-.77-2.86A2.1,2.1,0,0,1,139.67,93.66Z"/><path class="cls-3" d="M139.67,27.8a2.09,2.09,0,1,0-.77,2.86A2.1,2.1,0,0,0,139.67,27.8Z"/><path class="cls-3" d="M19,93.27a.55.55,0,0,1-.48-.28L.07,61a.61.61,0,0,1,0-.56l18.47-32a.55.55,0,1,1,1,.55L1.2,60.73l18.3,31.7a.55.55,0,0,1-.2.76A.6.6,0,0,1,19,93.27Z"/><circle class="cls-3" cx="18.97" cy="28.85" r="2.09" transform="translate(-15.51 27.07) rotate(-53.73)"/><path class="cls-3" d="M17.15,93.66a2.09,2.09,0,1,0,.77-2.86A2.09,2.09,0,0,0,17.15,93.66Z"/></g></g></svg>