<svg xmlns="http://www.w3.org/2000/svg" viewBox="0 0 809.43 121.46"><defs><style>.cls-1{fill:#050505;}.cls-2{fill:#f9b702;}.cls-3{fill:#f9b811;}</style></defs><g id="Слой_2" data-name="Слой 2"><g id="Слой_1-2" data-name="Слой 1"><path class="cls-1" d="M112.89,121.46H44.05a1.13,1.13,0,0,1-1-.55L8.66,61.29a1.12,1.12,0,0,1,0-1.12L43.08.56a1.11,1.11,0,0,1,1-.56h68.84a1.14,1.14,0,0,1,1,.56l34.42,59.61a1.12,1.12,0,0,1,0,1.12l-34.42,59.62A1.14,1.14,0,0,1,112.89,121.46Zm-68.2-2.23h67.55L146,60.73,112.24,2.23H44.69L10.91,60.73Z"/><path class="cls-2" d="M108.87,113.8H48.06a.41.41,0,0,1-.36-.21L17.3,60.94a.45.45,0,0,1,0-.42L47.7,7.87a.41.41,0,0,1,.36-.21h60.81a.42.42,0,0,1,.36.21l30.4,52.65a.45.45,0,0,1,0,.42l-30.4,52.65A.42.42,0,0,1,108.87,113.8ZM48.31,113h60.31l30.16-52.24L108.62,8.49H48.31L18.15,60.73Z"/><path class="cls-3" d="M108.87,114.3H48.06a1,1,0,0,1-.79-.45L16.87,61.19a.9.9,0,0,1,0-.9L47.27,7.62a.93.93,0,0,1,.78-.46h60.82a.92.92,0,0,1,.79.46l30.4,52.65a1,1,0,0,1,0,.9l-30.41,52.67A.91.91,0,0,1,108.87,114.3ZM48.6,112.5h59.73L138.2,60.76,108.33,9H48.6L18.73,60.73Z"/><path class="cls-2" d="M137.8,93.27a.54.54,0,0,1-.28-.08.54.54,0,0,1-.21-.75h0l18.3-31.7L137.32,29a.57.57,0,0,1,1-.55h0l18.46,32a.56.56,0,0,1,0,.56l-18.5,32A.56.56,0,0,1,137.8,93.27Z"/><path class="cls-2" d="M139.67,93.66a2.09,2.09,0,1,1-.77-2.86,2.09,2.09,0,0,1,.77,2.86Z"/><path class="cls-2" d="M139.67,27.8a2.09,2.09,0,1,0-.77,2.86,2.09,2.09,0,0,0,.77-2.86Z"/><path class="cls-2" d="M19,93.27a.56.56,0,0,1-.48-.28L.07,61a.61.61,0,0,1,0-.56l18.47-32a.55.55,0,0,1,.74-.23h0a.57.57,0,0,1,.24.76h0L1.2,60.73l18.3,31.7a.55.55,0,0,1-.19.75h0A.59.59,0,0,1,19,93.27Z"/><circle class="cls-2" cx="18.97" cy="28.84" r="2.09"/><path class="cls-2" d="M17.15,93.66a2.09,2.09,0,1,0,.77-2.86,2.08,2.08,0,0,0-.77,2.86Z"/><path class="cls-1" d="M64.16,52.46V55H62.39V47.73h2.86a2.85,2.85,0,0,1,2,.64,2.55,2.55,0,0,1,.37,3,2,2,0,0,1-.9.84,3.18,3.18,0,0,1-1.45.3Zm2-2.35c0-.64-.35-1-1.06-1h-.89V51h.89c.66,0,1-.27,1-.9Z"/><path class="cls-1" d="M74,49.86a2.71,2.71,0,0,1,.59,1.82V55H72.81V51.88a1.28,1.28,0,0,0-.3-.9,1.11,1.11,0,0,0-.81-.32,1.09,1.09,0,0,0-.85.34,1.35,1.35,0,0,0-.31,1v3H68.77V47.39h1.77v2.93a1.87,1.87,0,0,1,.73-.82,2.2,2.2,0,0,1,1.15-.3A2,2,0,0,1,74,49.86Z"/><path class="cls-1" d="M80,49.55a2.62,2.62,0,0,1,1.06,1,3.36,3.36,0,0,1,0,3.14,2.55,2.55,0,0,1-1.06,1,3.43,3.43,0,0,1-3.06,0,2.52,2.52,0,0,1-1.07-1,3.36,3.36,0,0,1,0-3.14,2.58,2.58,0,0,1,1.07-1A3.43,3.43,0,0,1,80,49.55Zm-2.38,1.54a1.77,1.77,0,0,0,0,2.1,1.18,1.18,0,0,0,1.7,0,1.8,1.8,0,0,0,0-2.1,1.21,1.21,0,0,0-1.74,0Z"/><path class="cls-1" d="M87.55,49.86a2.67,2.67,0,0,1,.58,1.82V55H86.37V51.88a1.24,1.24,0,0,0-.31-.9,1.11,1.11,0,0,0-.81-.32,1.12,1.12,0,0,0-.85.34,1.35,1.35,0,0,0-.31,1v3H82.33V49.27h1.76v1a2,2,0,0,1,.74-.82A2.16,2.16,0,0,1,86,49.2,2,2,0,0,1,87.55,49.86Z"/><path class="cls-1" d="M94.71,52.46h-4a1.27,1.27,0,0,0,.33.93,1.14,1.14,0,0,0,1.41.09,1,1,0,0,0,.34-.5h1.87a2.49,2.49,0,0,1-.5,1.08,2.67,2.67,0,0,1-1,.76,3.29,3.29,0,0,1-2.81-.09,2.53,2.53,0,0,1-1-1A3,3,0,0,1,89,52.14a3.2,3.2,0,0,1,.36-1.57,2.6,2.6,0,0,1,1-1,3.13,3.13,0,0,1,1.5-.36,3.19,3.19,0,0,1,1.51.35,2.53,2.53,0,0,1,1,1A2.94,2.94,0,0,1,94.76,52,3.41,3.41,0,0,1,94.71,52.46Zm-2-1.59a1.14,1.14,0,0,0-.78-.28,1.17,1.17,0,0,0-.8.28,1.24,1.24,0,0,0-.36.85H93a1.08,1.08,0,0,0-.33-.85Z"/><path class="cls-1" d="M64,68a2.16,2.16,0,0,1-.87.77,2.92,2.92,0,0,1-1.39.29,3.23,3.23,0,0,1-2-.6,2.15,2.15,0,0,1-.86-1.67h1.87a.94.94,0,0,0,.3.65.88.88,0,0,0,.64.24.72.72,0,0,0,.54-.19.65.65,0,0,0,.19-.49.69.69,0,0,0-.18-.47,1.37,1.37,0,0,0-.45-.3c-.17-.08-.42-.17-.74-.28a8.62,8.62,0,0,1-1.13-.46,2.07,2.07,0,0,1-.75-.66,2.14,2.14,0,0,1,0-2.26,2.1,2.1,0,0,1,.91-.73,3.35,3.35,0,0,1,1.33-.25,3,3,0,0,1,1.94.57,2.29,2.29,0,0,1,.81,1.59H62.23a1.11,1.11,0,0,0-.26-.57.83.83,0,0,0-.58-.21.75.75,0,0,0-.5.16.69.69,0,0,0,0,.93,1.42,1.42,0,0,0,.43.29l.74.29a9.56,9.56,0,0,1,1.15.47,2.22,2.22,0,0,1,.76.67,2,2,0,0,1,.3,1.22A2.17,2.17,0,0,1,64,68Z"/><path class="cls-1" d="M66.58,63.27,68,66.79l1.29-3.52h2L67.7,71.76h-2l1.35-3-2.41-5.53Z"/><path class="cls-1" d="M75.62,63.74a2.37,2.37,0,0,1,.82,1.44H74.79a.94.94,0,0,0-.32-.55,1,1,0,0,0-.64-.2.72.72,0,0,0-.45.13.48.48,0,0,0-.15.37.42.42,0,0,0,.28.4,4.37,4.37,0,0,0,.89.27,7.86,7.86,0,0,1,1.08.31,1.92,1.92,0,0,1,.74.52,1.5,1.5,0,0,1,.3,1,1.45,1.45,0,0,1-.26.88,1.75,1.75,0,0,1-.78.59,2.86,2.86,0,0,1-1.19.22,3,3,0,0,1-1.87-.52,2.15,2.15,0,0,1-.85-1.47h1.7a.75.75,0,0,0,.31.57,1.19,1.19,0,0,0,.71.19.58.58,0,0,0,.45-.14.47.47,0,0,0-.13-.79,5.09,5.09,0,0,0-.92-.27,6.75,6.75,0,0,1-1-.29,1.62,1.62,0,0,1-.71-.5,1.38,1.38,0,0,1-.3-.94,1.51,1.51,0,0,1,.59-1.26,2.53,2.53,0,0,1,1.66-.48A2.71,2.71,0,0,1,75.62,63.74Z"/><path class="cls-1" d="M80.76,67.5V69H80a2.23,2.23,0,0,1-1.57-.5,2.11,2.11,0,0,1-.57-1.66V64.75h-.77V63.27h.77V61.85H79.6v1.42h1.15v1.48H79.6v2.14a.5.5,0,0,0,.36.61.49.49,0,0,0,.24,0Z"/><path class="cls-1" d="M87.16,66.46h-4a1.27,1.27,0,0,0,.33.93,1,1,0,0,0,.77.29,1,1,0,0,0,.64-.2.87.87,0,0,0,.34-.5h1.87a2.6,2.6,0,0,1-.49,1.08,2.75,2.75,0,0,1-1,.76,3,3,0,0,1-1.31.27,3,3,0,0,1-1.5-.36,2.53,2.53,0,0,1-1-1,3.54,3.54,0,0,1,0-3.14,2.53,2.53,0,0,1,1-1,3.37,3.37,0,0,1,3,0,2.67,2.67,0,0,1,1,1A3.09,3.09,0,0,1,87.21,66,2.31,2.31,0,0,1,87.16,66.46Zm-2-1.59a1.14,1.14,0,0,0-.78-.28,1.18,1.18,0,0,0-.81.28,1.24,1.24,0,0,0-.36.85h2.25a1,1,0,0,0-.33-.85Z"/><path class="cls-1" d="M97.25,63.86a2.58,2.58,0,0,1,.61,1.82V69H96.11V65.88a1.2,1.2,0,0,0-.3-.85,1,1,0,0,0-.79-.3,1.11,1.11,0,0,0-.83.32,1.3,1.3,0,0,0-.31.92v3H92.12V65.88a1.26,1.26,0,0,0-.29-.85,1,1,0,0,0-.79-.3,1.14,1.14,0,0,0-.84.32,1.3,1.3,0,0,0-.31.92v3H88.13v-5.7h1.76v1a1.74,1.74,0,0,1,.7-.77,2.2,2.2,0,0,1,1.1-.28,2.24,2.24,0,0,1,1.16.31,1.89,1.89,0,0,1,.76.87,2.5,2.5,0,0,1,.82-.86,2.38,2.38,0,0,1,2.82.32Z"/><path class="cls-1" d="M276,121.46h-68.8a1.13,1.13,0,0,1-1-.55L171.8,61.29a1.12,1.12,0,0,1,0-1.12L206.22.56a1.11,1.11,0,0,1,1-.56h68.84a1.11,1.11,0,0,1,1,.56l34.42,59.61a1.12,1.12,0,0,1,0,1.12l-34.42,59.62A1.13,1.13,0,0,1,276,121.46Zm-68.2-2.23h67.55l33.76-58.5L275.38,2.23H207.83l-33.78,58.5Z"/><path class="cls-2" d="M272,113.8H211.2a.41.41,0,0,1-.36-.21l-30.4-52.65a.45.45,0,0,1,0-.42l30.4-52.65a.41.41,0,0,1,.36-.21H272a.41.41,0,0,1,.36.21l30.4,52.65a.45.45,0,0,1,0,.42l-30.4,52.65A.41.41,0,0,1,272,113.8Zm-60.56-.8h60.31L301.9,60.76,271.76,8.49H211.45L181.29,60.73Z"/><path class="cls-3" d="M272,114.3H211.2a.93.93,0,0,1-.79-.45L180,61.19a1,1,0,0,1,0-.9L210.4,7.62a1,1,0,0,1,.79-.46H272a.91.91,0,0,1,.79.46l30.4,52.65a1,1,0,0,1,0,.9l-30.41,52.67A.93.93,0,0,1,272,114.3Zm-60.27-1.8h59.73l29.87-51.74L271.47,9H211.74L181.86,60.73Z"/><path class="cls-2" d="M301,93.27a.57.57,0,0,1-.28-.08.55.55,0,0,1-.21-.75h0l18.3-31.7L300.46,29a.56.56,0,0,1,.23-.77.55.55,0,0,1,.77.22h0l18.46,32a.56.56,0,0,1,0,.56l-18.5,32A.54.54,0,0,1,301,93.27Z"/><path class="cls-2" d="M302.81,93.66A2.09,2.09,0,1,1,302,90.8a2.08,2.08,0,0,1,.77,2.86Z"/><path class="cls-2" d="M302.81,27.8a2.09,2.09,0,1,0-.77,2.86,2.08,2.08,0,0,0,.77-2.86Z"/><path class="cls-2" d="M182.14,93.27a.56.56,0,0,1-.48-.28L163.21,61a.61.61,0,0,1,0-.56l18.47-32a.56.56,0,0,1,.74-.24l0,0a.56.56,0,0,1,.24.76h0L164.34,60.73l18.3,31.7a.55.55,0,0,1-.19.75h0A.56.56,0,0,1,182.14,93.27Z"/><circle class="cls-2" cx="182.11" cy="28.84" r="2.09"/><path class="cls-2" d="M180.29,93.66a2.09,2.09,0,1,0,.77-2.86,2.09,2.09,0,0,0-.77,2.86Z"/><path class="cls-1" d="M223.77,55l-1.58-2.75h-.4V55H220V47.73h3a3.3,3.3,0,0,1,1.46.3,2,2,0,0,1,.9.82,2.24,2.24,0,0,1,.3,1.19,2.12,2.12,0,0,1-.44,1.35,2.2,2.2,0,0,1-1.27.76L225.72,55Zm-2-4h1.09a1.14,1.14,0,0,0,.78-.23.93.93,0,0,0,.24-.69.87.87,0,0,0-.25-.68,1.07,1.07,0,0,0-.77-.25h-1.07Z"/><path class="cls-1" d="M226.71,47a1.23,1.23,0,0,1,1.52,0,.87.87,0,0,1,.29.67.81.81,0,0,1-.29.65,1.2,1.2,0,0,1-1.52,0,.81.81,0,0,1-.29-.65A.87.87,0,0,1,226.71,47Zm1.64,2.29V55h-1.77V49.27Z"/><path class="cls-1" d="M234.78,49.86a2.61,2.61,0,0,1,.59,1.82V55H233.6V51.88a1.28,1.28,0,0,0-.3-.9,1.07,1.07,0,0,0-.81-.32,1.09,1.09,0,0,0-.85.34,1.4,1.4,0,0,0-.32,1v3h-1.76V49.27h1.76v1a2,2,0,0,1,.74-.82,2.22,2.22,0,0,1,1.15-.3A2,2,0,0,1,234.78,49.86Z"/><path class="cls-1" d="M239.85,49.49a1.7,1.7,0,0,1,.7.82v-1h1.75V55a3.12,3.12,0,0,1-.31,1.44,2.35,2.35,0,0,1-1,1,3,3,0,0,1-1.58.38,3.24,3.24,0,0,1-2.08-.61,2.5,2.5,0,0,1-.93-1.67h1.74a.84.84,0,0,0,.38.55,1.36,1.36,0,0,0,.76.2A1.14,1.14,0,0,0,240.55,55V54a1.73,1.73,0,0,1-.7.81,2,2,0,0,1-1.13.3,2.32,2.32,0,0,1-1.28-.36,2.37,2.37,0,0,1-.88-1,3.9,3.9,0,0,1,0-3.14,2.5,2.5,0,0,1,.88-1,2.32,2.32,0,0,1,1.28-.36A2.12,2.12,0,0,1,239.85,49.49Zm-1.48,1.62a1.68,1.68,0,0,0,0,2.06,1.17,1.17,0,0,0,.91.37,1.12,1.12,0,0,0,.91-.38,1.62,1.62,0,0,0,0-2,1.19,1.19,0,0,0-.91-.38A1.15,1.15,0,0,0,238.37,51.11Z"/><path class="cls-1" d="M245.28,47.39V55h-1.76V47.39Z"/><path class="cls-1" d="M251.91,52.46h-4a1.38,1.38,0,0,0,.33.93,1.14,1.14,0,0,0,1.41.09A.91.91,0,0,0,250,53h1.87a2.29,2.29,0,0,1-.5,1.08,2.67,2.67,0,0,1-1,.76,3.29,3.29,0,0,1-2.8-.09,2.53,2.53,0,0,1-1-1,3.27,3.27,0,0,1-.37-1.57,3.32,3.32,0,0,1,.36-1.57,2.6,2.6,0,0,1,1-1,3.37,3.37,0,0,1,3,0,2.53,2.53,0,0,1,1,1A2.91,2.91,0,0,1,252,52,2.33,2.33,0,0,1,251.91,52.46Zm-2-1.59a1.1,1.1,0,0,0-.78-.28,1.17,1.17,0,0,0-.8.28,1.29,1.29,0,0,0-.36.85h2.25a1.06,1.06,0,0,0-.35-.85Z"/><path class="cls-1" d="M256.72,49.74a2.37,2.37,0,0,1,.82,1.44h-1.65a.92.92,0,0,0-1-.75.71.71,0,0,0-.46.13.48.48,0,0,0-.15.37.42.42,0,0,0,.28.4,4.79,4.79,0,0,0,.89.27,8,8,0,0,1,1.09.31,1.88,1.88,0,0,1,.73.52,1.39,1.39,0,0,1,.31,1,1.45,1.45,0,0,1-.27.88,1.8,1.8,0,0,1-.77.59,2.91,2.91,0,0,1-1.2.22,3,3,0,0,1-1.86-.52,2.12,2.12,0,0,1-.86-1.47h1.7a.76.76,0,0,0,.32.57,1.16,1.16,0,0,0,.7.19.68.68,0,0,0,.46-.14.44.44,0,0,0,.15-.36.46.46,0,0,0-.28-.43,5,5,0,0,0-.93-.27,8.78,8.78,0,0,1-1-.29,1.77,1.77,0,0,1-.71-.5,1.4,1.4,0,0,1-.3-.94,1.57,1.57,0,0,1,.59-1.26,2.53,2.53,0,0,1,1.66-.48A2.72,2.72,0,0,1,256.72,49.74Z"/><path class="cls-1" d="M262.44,49.74a2.37,2.37,0,0,1,.82,1.44h-1.65a.92.92,0,0,0-1-.75.71.71,0,0,0-.46.13.48.48,0,0,0-.15.37.42.42,0,0,0,.28.4,4.67,4.67,0,0,0,.9.27,7.86,7.86,0,0,1,1.08.31,1.88,1.88,0,0,1,.73.52,1.39,1.39,0,0,1,.31,1,1.45,1.45,0,0,1-.27.88,1.8,1.8,0,0,1-.77.59,2.91,2.91,0,0,1-1.2.22,3,3,0,0,1-1.86-.52,2.12,2.12,0,0,1-.86-1.47h1.7a.76.76,0,0,0,.32.57,1.16,1.16,0,0,0,.7.19.57.57,0,0,0,.45-.14.48.48,0,0,0,0-.68.58.58,0,0,0-.15-.11,5,5,0,0,0-.93-.27,8.22,8.22,0,0,1-1.05-.29,1.77,1.77,0,0,1-.71-.5,1.4,1.4,0,0,1-.3-.94A1.57,1.57,0,0,1,259,49.7a2.53,2.53,0,0,1,1.66-.48A2.66,2.66,0,0,1,262.44,49.74Z"/><path class="cls-1" d="M216.72,61.73l1.79,5.48,1.78-5.48h1.89L219.64,69h-2.28l-2.52-7.29Z"/><path class="cls-1" d="M227.08,63.55a2.69,2.69,0,0,1,1.06,1,3.36,3.36,0,0,1,0,3.14,2.55,2.55,0,0,1-1.06,1,3.14,3.14,0,0,1-1.53.36,3.32,3.32,0,0,1-1.54-.36,2.55,2.55,0,0,1-1.06-1,3.36,3.36,0,0,1,0-3.14,2.62,2.62,0,0,1,1.06-1,3.32,3.32,0,0,1,1.54-.36A3.25,3.25,0,0,1,227.08,63.55Zm-2.38,1.54a1.77,1.77,0,0,0,0,2.1,1.11,1.11,0,0,0,.85.36,1.07,1.07,0,0,0,.84-.36,1.77,1.77,0,0,0,0-2.1,1.08,1.08,0,0,0-.84-.37,1.11,1.11,0,0,0-.85.37Z"/><path class="cls-1" d="M229.57,61a1.23,1.23,0,0,1,1.52,0,.87.87,0,0,1,.29.67.81.81,0,0,1-.29.65,1.2,1.2,0,0,1-1.52,0,.84.84,0,0,1-.29-.65A.9.9,0,0,1,229.57,61Zm1.64,2.29V69h-1.77V63.27Z"/><path class="cls-1" d="M236.89,63.81a2.72,2.72,0,0,1,.94,1.68H236a1,1,0,0,0-.34-.57,1,1,0,0,0-.65-.21.94.94,0,0,0-.76.36,2.06,2.06,0,0,0,0,2.14.94.94,0,0,0,.76.36,1,1,0,0,0,.65-.2,1,1,0,0,0,.34-.58h1.86a2.69,2.69,0,0,1-.94,1.69,2.92,2.92,0,0,1-1.87.61,3,3,0,0,1-1.5-.36,2.53,2.53,0,0,1-1-1,3.54,3.54,0,0,1,0-3.14,2.6,2.6,0,0,1,1-1,3.2,3.2,0,0,1,1.51-.36A2.9,2.9,0,0,1,236.89,63.81Z"/><path class="cls-1" d="M244.16,66.46h-4a1.38,1.38,0,0,0,.33.93,1.06,1.06,0,0,0,.77.29,1,1,0,0,0,1-.7h1.86a2.37,2.37,0,0,1-.49,1.08,2.67,2.67,0,0,1-1,.76,3.29,3.29,0,0,1-2.81-.09,2.53,2.53,0,0,1-1-1,3.27,3.27,0,0,1-.37-1.57,3.16,3.16,0,0,1,.37-1.57,2.53,2.53,0,0,1,1-1,3.37,3.37,0,0,1,3,0,2.53,2.53,0,0,1,1,1,2.87,2.87,0,0,1,.35,1.46A1.41,1.41,0,0,1,244.16,66.46Zm-2-1.59a1.1,1.1,0,0,0-.78-.28,1.21,1.21,0,0,0-.81.28,1.29,1.29,0,0,0-.36.85h2.25a1,1,0,0,0-.33-.85Z"/><path class="cls-1" d="M254.25,63.86a2.57,2.57,0,0,1,.61,1.82V69h-1.75V65.88a1.16,1.16,0,0,0-.3-.85,1,1,0,0,0-.79-.3,1.11,1.11,0,0,0-.83.32,1.29,1.29,0,0,0-.31.92v3h-1.76V65.88a1.21,1.21,0,0,0-.29-.85,1,1,0,0,0-.79-.3,1.15,1.15,0,0,0-.84.32,1.3,1.3,0,0,0-.31.92v3h-1.76v-5.7h1.76v1a1.8,1.8,0,0,1,.7-.77,2.15,2.15,0,0,1,1.1-.28,2.24,2.24,0,0,1,1.16.31,1.84,1.84,0,0,1,.76.87,2.41,2.41,0,0,1,.82-.86,2.24,2.24,0,0,1,1.15-.32A2.16,2.16,0,0,1,254.25,63.86Z"/><path class="cls-1" d="M259.35,63.49a1.82,1.82,0,0,1,.71.82v-1h1.75V69h-1.75V68a1.86,1.86,0,0,1-.71.81,2,2,0,0,1-1.13.3,2.29,2.29,0,0,1-1.27-.36,2.46,2.46,0,0,1-.89-1,4,4,0,0,1,0-3.14,2.53,2.53,0,0,1,.89-1,2.29,2.29,0,0,1,1.27-.36A2,2,0,0,1,259.35,63.49Zm-1.47,1.62a1.68,1.68,0,0,0,0,2.06,1.29,1.29,0,0,0,1.82,0,1.62,1.62,0,0,0,0-2,1.36,1.36,0,0,0-1.82-.06Z"/><path class="cls-1" d="M263.15,61a1.23,1.23,0,0,1,1.52,0,.87.87,0,0,1,.29.67.81.81,0,0,1-.29.65,1.2,1.2,0,0,1-1.52,0,.84.84,0,0,1-.29-.65A.9.9,0,0,1,263.15,61Zm1.64,2.29V69H263V63.27Z"/><path class="cls-1" d="M267.76,61.39V69H266V61.39Z"/><path class="cls-1" d="M439.18,121.46H370.34a1.13,1.13,0,0,1-1-.55L335,61.29a1.12,1.12,0,0,1,0-1.12L369.37.56a1.12,1.12,0,0,1,1-.56h68.84a1.12,1.12,0,0,1,1,.56l34.42,59.61a1.12,1.12,0,0,1,0,1.12l-34.42,59.62A1.15,1.15,0,0,1,439.18,121.46ZM371,119.23h67.55l33.76-58.5L438.53,2.23H371l-33.8,58.5Z"/><path class="cls-2" d="M435.16,113.8H374.35a.41.41,0,0,1-.36-.21l-30.4-52.65a.45.45,0,0,1,0-.42L374,7.87a.43.43,0,0,1,.36-.21h60.81a.43.43,0,0,1,.36.21l30.4,52.65a.51.51,0,0,1,0,.42l-30.4,52.65A.4.4,0,0,1,435.16,113.8ZM374.6,113h60.31l30.16-52.24L434.91,8.49H374.6L344.44,60.73Z"/><path class="cls-3" d="M435.17,114.3H374.35a1,1,0,0,1-.79-.46l-30.4-52.65a1,1,0,0,1,0-.9l30.4-52.67a.94.94,0,0,1,.78-.46h60.82a1,1,0,0,1,.8.46l30.4,52.65a1,1,0,0,1,0,.9L436,113.84A.92.92,0,0,1,435.17,114.3Zm-60.28-1.8h59.74L464.5,60.76,434.63,9H374.89L345,60.73Z"/><path class="cls-2" d="M464.09,93.27a.56.56,0,0,1-.48-.83h0l18.3-31.7L463.61,29a.55.55,0,0,1,.21-.76h0a.55.55,0,0,1,.75.19l0,0h0l18.46,32a.56.56,0,0,1,0,.56l-18.5,32A.54.54,0,0,1,464.09,93.27Z"/><path class="cls-2" d="M466,93.66a2.09,2.09,0,1,1-.77-2.86,2.09,2.09,0,0,1,.77,2.86Z"/><path class="cls-2" d="M466,27.8a2.09,2.09,0,1,0-.77,2.86,2.07,2.07,0,0,0,.78-2.83Z"/><path class="cls-2" d="M345.29,93.27a.56.56,0,0,1-.48-.28L326.36,61a.56.56,0,0,1,0-.56l18.47-32a.57.57,0,0,1,.77-.22h0a.55.55,0,0,1,.23.74v0L327.49,60.73l18.3,31.7a.54.54,0,0,1-.18.74h0A.59.59,0,0,1,345.29,93.27Z"/><circle class="cls-2" cx="345.27" cy="28.84" r="2.09"/><path class="cls-2" d="M343.44,93.66a2.09,2.09,0,1,0,.77-2.86,2.08,2.08,0,0,0-.77,2.86Z"/><path class="cls-1" d="M399.15,47.73v1.4h-2V55H395.4V49.13h-2v-1.4Z"/><path class="cls-1" d="M405.3,52.46h-4a1.27,1.27,0,0,0,.33.93,1,1,0,0,0,.76.29,1,1,0,0,0,.65-.2.87.87,0,0,0,.34-.5h1.87a2.49,2.49,0,0,1-.5,1.08,2.75,2.75,0,0,1-1,.76,3.31,3.31,0,0,1-2.81-.09,2.47,2.47,0,0,1-1-1,3.47,3.47,0,0,1,0-3.14,2.47,2.47,0,0,1,1-1,3.37,3.37,0,0,1,3,0,2.74,2.74,0,0,1,1,1A3.21,3.21,0,0,1,405.3,52,2.94,2.94,0,0,1,405.3,52.46Zm-2-1.59a1.14,1.14,0,0,0-.78-.28,1.18,1.18,0,0,0-.81.28,1.2,1.2,0,0,0-.36.85h2.25a1.08,1.08,0,0,0-.33-.85Z"/><path class="cls-1" d="M409.87,55l-1.18-1.64-1,1.64h-1.94l1.91-3-2-2.75h2l1.17,1.61.95-1.61h1.94l-2,2.92,2,2.83Z"/><path class="cls-1" d="M415.76,53.5V55H415a2.23,2.23,0,0,1-1.57-.5,2.08,2.08,0,0,1-.57-1.66V50.75h-.77V49.27h.77V47.85h1.77v1.42h1.15v1.48H414.6v2.14a.57.57,0,0,0,.14.48.61.61,0,0,0,.47.13Z"/><path class="cls-1" d="M389.73,61.78V69H388V64.49L386.4,69h-1.52l-1.58-4.54V69h-1.76V61.78h2.15l2,5,1.93-5Z"/><path class="cls-1" d="M396.36,66.46h-4a1.27,1.27,0,0,0,.33.93,1.14,1.14,0,0,0,1.41.09,1,1,0,0,0,.34-.5h1.87a2.49,2.49,0,0,1-.5,1.08,2.67,2.67,0,0,1-1,.76,3,3,0,0,1-1.31.27,3,3,0,0,1-1.49-.36,2.47,2.47,0,0,1-1-1,3.06,3.06,0,0,1-.37-1.57,3.2,3.2,0,0,1,.36-1.57,2.6,2.6,0,0,1,1-1,3.11,3.11,0,0,1,1.5-.36,3.19,3.19,0,0,1,1.51.35,2.6,2.6,0,0,1,1,1,3,3,0,0,1,.36,1.46C396.37,66.18,396.37,66.32,396.36,66.46Zm-2-1.59a1.14,1.14,0,0,0-.78-.28,1.15,1.15,0,0,0-.8.28,1.2,1.2,0,0,0-.36.85h2.25a1.13,1.13,0,0,0-.35-.85Z"/><path class="cls-1" d="M401.17,63.74a2.48,2.48,0,0,1,.82,1.44h-1.65a1.08,1.08,0,0,0-.33-.55,1.12,1.12,0,0,0-.63-.2.63.63,0,0,0-.45.13.44.44,0,0,0-.16.37.42.42,0,0,0,.28.4,4.67,4.67,0,0,0,.9.27,8.76,8.76,0,0,1,1.08.31,1.88,1.88,0,0,1,.73.52,1.49,1.49,0,0,1,.31,1,1.52,1.52,0,0,1-.27.88,1.78,1.78,0,0,1-.77.59,3.51,3.51,0,0,1-3.06-.3,2.12,2.12,0,0,1-.86-1.47h1.7a.73.73,0,0,0,.32.57,1.14,1.14,0,0,0,.7.19.6.6,0,0,0,.46-.14.48.48,0,0,0,.15-.36.46.46,0,0,0-.28-.43,5.19,5.19,0,0,0-.93-.27,7.4,7.4,0,0,1-1.05-.29,1.62,1.62,0,0,1-.71-.5,1.33,1.33,0,0,1-.3-.94,1.53,1.53,0,0,1,.59-1.26,2.52,2.52,0,0,1,1.66-.48A2.76,2.76,0,0,1,401.17,63.74Z"/><path class="cls-1" d="M406.89,63.74a2.48,2.48,0,0,1,.82,1.44h-1.65a1.08,1.08,0,0,0-.33-.55,1.12,1.12,0,0,0-.63-.2.63.63,0,0,0-.45.13.45.45,0,0,0,0,.65.52.52,0,0,0,.17.12,4.67,4.67,0,0,0,.9.27,8.76,8.76,0,0,1,1.08.31,1.88,1.88,0,0,1,.73.52,1.49,1.49,0,0,1,.31,1,1.52,1.52,0,0,1-.27.88,1.78,1.78,0,0,1-.77.59,3.51,3.51,0,0,1-3.06-.3,2.12,2.12,0,0,1-.86-1.47h1.7a.73.73,0,0,0,.32.57,1.14,1.14,0,0,0,.7.19.6.6,0,0,0,.46-.14.48.48,0,0,0,.15-.36.46.46,0,0,0-.28-.43,5.19,5.19,0,0,0-.93-.27,7.4,7.4,0,0,1-1.05-.29,1.62,1.62,0,0,1-.71-.5,1.33,1.33,0,0,1-.3-.94,1.53,1.53,0,0,1,.59-1.26,2.52,2.52,0,0,1,1.66-.48A2.76,2.76,0,0,1,406.89,63.74Z"/><path class="cls-1" d="M412.09,63.49a1.86,1.86,0,0,1,.7.82v-1h1.75V69h-1.75V68a1.85,1.85,0,0,1-.7.81,2.1,2.1,0,0,1-1.14.3,2.26,2.26,0,0,1-1.27-.36,2.33,2.33,0,0,1-.89-1,4,4,0,0,1,0-3.14,2.45,2.45,0,0,1,.89-1,2.35,2.35,0,0,1,1.27-.36A2.16,2.16,0,0,1,412.09,63.49Zm-1.48,1.62a1.68,1.68,0,0,0,0,2.06,1.29,1.29,0,0,0,1.82,0,1.65,1.65,0,0,0,0-2,1.22,1.22,0,0,0-.91-.38A1.17,1.17,0,0,0,410.61,65.11Z"/><path class="cls-1" d="M419.08,63.49a2,2,0,0,1,.7.82v-1h1.75V69a3.25,3.25,0,0,1-.31,1.44,2.41,2.41,0,0,1-1,1,3.06,3.06,0,0,1-1.59.38,3.2,3.2,0,0,1-2.07-.61,2.51,2.51,0,0,1-.94-1.67h1.75a.79.79,0,0,0,.37.55,1.37,1.37,0,0,0,.77.2,1.25,1.25,0,0,0,.88-.32,1.35,1.35,0,0,0,.34-1V68a2,2,0,0,1-.7.81,2.1,2.1,0,0,1-1.14.3,2.26,2.26,0,0,1-1.27-.36,2.33,2.33,0,0,1-.89-1,4,4,0,0,1,0-3.14,2.38,2.38,0,0,1,.89-1,2.35,2.35,0,0,1,1.27-.36A2.15,2.15,0,0,1,419.08,63.49Zm-1.48,1.62a1.68,1.68,0,0,0,0,2.06,1.29,1.29,0,0,0,1.82,0,1.65,1.65,0,0,0,0-2,1.22,1.22,0,0,0-.91-.38,1.17,1.17,0,0,0-.91.32Z"/><path class="cls-1" d="M428.16,66.46h-4a1.27,1.27,0,0,0,.33.93,1.14,1.14,0,0,0,1.41.09,1,1,0,0,0,.34-.5h1.86a2.48,2.48,0,0,1-.49,1.08,2.75,2.75,0,0,1-1,.76,3.29,3.29,0,0,1-2.81-.09,2.47,2.47,0,0,1-1-1,3.06,3.06,0,0,1-.37-1.57,3.2,3.2,0,0,1,.36-1.57,2.6,2.6,0,0,1,1-1,3.11,3.11,0,0,1,1.5-.36,3.19,3.19,0,0,1,1.51.35,2.67,2.67,0,0,1,1,1,3,3,0,0,1,.36,1.46A2.94,2.94,0,0,1,428.16,66.46Zm-2-1.59a1.14,1.14,0,0,0-.78-.28,1.15,1.15,0,0,0-.8.28,1.18,1.18,0,0,0-.36.85h2.24a1,1,0,0,0-.34-.85Z"/><path class="cls-1" d="M602.32,121.46H533.48a1.09,1.09,0,0,1-1-.55L498.09,61.29a1.12,1.12,0,0,1,0-1.12L532.51.56a1.14,1.14,0,0,1,1-.56h68.84a1.14,1.14,0,0,1,1,.56l34.42,59.61a1.12,1.12,0,0,1,0,1.12l-34.42,59.62A1.11,1.11,0,0,1,602.32,121.46Zm-68.2-2.23h67.52l33.76-58.5L601.64,2.23H534.12l-33.78,58.5Z"/><path class="cls-2" d="M598.3,113.8H537.49a.41.41,0,0,1-.36-.21L506.73,61a.45.45,0,0,1,0-.42L537.13,7.9a.47.47,0,0,1,.36-.21H598.3a.41.41,0,0,1,.36.21l30.4,52.65a.45.45,0,0,1,0,.42l-30.42,52.62A.41.41,0,0,1,598.3,113.8ZM537.74,113h60.31l30.16-52.24L598.05,8.46H537.74L507.58,60.7Z"/><path class="cls-3" d="M598.3,114.3H537.49a.9.9,0,0,1-.79-.45L506.3,61.19a.9.9,0,0,1,0-.9L536.71,7.62a.93.93,0,0,1,.78-.46h60.82a1,1,0,0,1,.79.46l30.4,52.65a1,1,0,0,1,0,.91l-30.41,52.66a.91.91,0,0,1-.78.46ZM538,112.5h59.73l29.88-51.74L597.76,9H538L508.16,60.71Z"/><path class="cls-2" d="M627.23,93.27a.54.54,0,0,1-.28-.08.55.55,0,0,1-.2-.75h0l18.3-31.7L626.75,29a.57.57,0,0,1,1-.55h0l18.46,32a.56.56,0,0,1,0,.56l-18.5,32A.54.54,0,0,1,627.23,93.27Z"/><path class="cls-2" d="M629.1,93.66a2.09,2.09,0,1,1-.77-2.86,2.09,2.09,0,0,1,.77,2.86Z"/><path class="cls-2" d="M629.1,27.8a2.09,2.09,0,1,0-.77,2.86,2.07,2.07,0,0,0,.78-2.83Z"/><path class="cls-2" d="M508.43,93.27A.54.54,0,0,1,508,93L489.5,61a.61.61,0,0,1,0-.56l18.47-32a.58.58,0,0,1,.78-.22A.57.57,0,0,1,509,29L490.64,60.73l18.3,31.7a.55.55,0,0,1-.18.76h0A.53.53,0,0,1,508.43,93.27Z"/><circle class="cls-2" cx="508.4" cy="28.85" r="2.09"/><path class="cls-2" d="M506.58,93.66a2.09,2.09,0,1,0,.77-2.86A2.1,2.1,0,0,0,506.58,93.66Z"/><path class="cls-1" d="M555.54,56.13v1.53H558V59h-2.46v1.62h2.77V62h-4.53V54.71h4.53v1.4Z"/><path class="cls-1" d="M568.43,56.86a2.58,2.58,0,0,1,.61,1.82V62h-1.75V58.89A1.16,1.16,0,0,0,567,58a1,1,0,0,0-.79-.31,1.11,1.11,0,0,0-.83.33,1.27,1.27,0,0,0-.31.91V62H563.3V58.89A1.21,1.21,0,0,0,563,58a1,1,0,0,0-.79-.31,1.14,1.14,0,0,0-.84.32,1.3,1.3,0,0,0-.31.92V62h-1.76V56.27h1.76v1a1.74,1.74,0,0,1,.7-.77,2.38,2.38,0,0,1,2.26,0,1.84,1.84,0,0,1,.76.87,2.3,2.3,0,0,1,.82-.85,2.1,2.1,0,0,1,1.15-.32A2.17,2.17,0,0,1,568.43,56.86Z"/><path class="cls-1" d="M573.54,56.5a1.89,1.89,0,0,1,.7.81v-1H576v5.75h-1.75v-1a1.89,1.89,0,0,1-.7.81,2.07,2.07,0,0,1-1.14.3,2.28,2.28,0,0,1-1.27-.35,2.46,2.46,0,0,1-.89-1,4,4,0,0,1,0-3.14,2.53,2.53,0,0,1,.89-1,2.28,2.28,0,0,1,1.27-.35A2.13,2.13,0,0,1,573.54,56.5Zm-1.49,1.61a1.64,1.64,0,0,0,0,2,1.22,1.22,0,0,0,.92.38,1.16,1.16,0,0,0,.91-.39,1.62,1.62,0,0,0,0-2,1.22,1.22,0,0,0-.91-.38,1.27,1.27,0,0,0-.92.39Z"/><path class="cls-1" d="M577.33,54a1.2,1.2,0,0,1,1.52,0,.88.88,0,0,1,.07,1.24l-.07.07a1.2,1.2,0,0,1-1.52,0,.88.88,0,0,1-.07-1.24A.46.46,0,0,1,577.33,54ZM579,56.25V62H577.2V56.27Z"/><path class="cls-1" d="M582,54.39V62h-1.77V54.39Z"/><path class="cls-1" d="M765.47,121.46H696.64a1.08,1.08,0,0,1-1-.55l-34.4-59.62a1.12,1.12,0,0,1,0-1.12L695.64.56a1.13,1.13,0,0,1,1-.56h68.84a1.14,1.14,0,0,1,1,.56L800.9,60.17a1.12,1.12,0,0,1,0,1.12l-34.42,59.62A1.11,1.11,0,0,1,765.47,121.46Zm-68.2-2.23h67.55l33.76-58.5L764.82,2.23H697.27l-33.78,58.5Z"/><path class="cls-2" d="M761.45,113.8H700.64a.41.41,0,0,1-.36-.21L669.88,61a.45.45,0,0,1,0-.42L700.28,7.9a.47.47,0,0,1,.36-.21h60.81a.42.42,0,0,1,.36.21l30.4,52.65a.45.45,0,0,1,0,.42l-30.4,52.65A.4.4,0,0,1,761.45,113.8Zm-60.56-.8H761.2l30.16-52.24L761.2,8.49H700.89L670.73,60.73Z"/><path class="cls-3" d="M761.45,114.3H700.64a.9.9,0,0,1-.79-.45l-30.4-52.66a.9.9,0,0,1,0-.9L699.86,7.62a1,1,0,0,1,.78-.46h60.82a1,1,0,0,1,.79.46l30.39,52.65a1,1,0,0,1,0,.91l-30.4,52.66A.9.9,0,0,1,761.45,114.3Zm-60.27-1.8h59.73l29.87-51.74L760.91,9H701.18L671.31,60.71Z"/><path class="cls-2" d="M790.38,93.27a.54.54,0,0,1-.28-.08.54.54,0,0,1-.21-.75h0l18.3-31.7L789.9,29a.57.57,0,0,1,.22-.77.59.59,0,0,1,.78.22h0l18.46,32a.56.56,0,0,1,0,.56l-18.5,32A.54.54,0,0,1,790.38,93.27Z"/><path class="cls-2" d="M792.25,93.66a2.09,2.09,0,1,1-.77-2.86A2.09,2.09,0,0,1,792.25,93.66Z"/><path class="cls-2" d="M792.25,27.8a2.09,2.09,0,1,0-.77,2.86,2.09,2.09,0,0,0,.77-2.86Z"/><path class="cls-2" d="M671.58,93.27a.53.53,0,0,1-.48-.28L652.64,61a.61.61,0,0,1,0-.56l18.47-32a.57.57,0,0,1,1,.55h0L653.77,60.7l18.3,31.7a.55.55,0,0,1-.19.76h0A.48.48,0,0,1,671.58,93.27Z"/><circle class="cls-2" cx="671.55" cy="28.85" r="2.09"/><path class="cls-2" d="M669.73,93.66a2.09,2.09,0,1,0,.77-2.86,2.08,2.08,0,0,0-.77,2.86Z"/><path class="cls-1" d="M710.49,47.73v1.4h-3v1.6h2.31v1.34h-2.31v3h-1.75V47.78Z"/><path class="cls-1" d="M714.71,49.5a1.73,1.73,0,0,1,.7.81v-1h1.76v5.75h-1.76v-1a1.78,1.78,0,0,1-.7.81,2,2,0,0,1-1.13.3,2.28,2.28,0,0,1-1.27-.35,2.39,2.39,0,0,1-.89-1,3.9,3.9,0,0,1,0-3.14,2.45,2.45,0,0,1,.89-1,2.28,2.28,0,0,1,1.27-.35A2.09,2.09,0,0,1,714.71,49.5Zm-1.48,1.61a1.42,1.42,0,0,0-.34,1,1.4,1.4,0,0,0,.34,1,1.19,1.19,0,0,0,.92.38,1.18,1.18,0,0,0,.91-.39,1.68,1.68,0,0,0,0-2,1.22,1.22,0,0,0-.91-.38A1.27,1.27,0,0,0,713.23,51.11Z"/><path class="cls-1" d="M722.85,49.81a2.74,2.74,0,0,1,.94,1.68h-1.86a1,1,0,0,0-1-.78.91.91,0,0,0-.76.37,2,2,0,0,0,0,2.13.91.91,0,0,0,.76.37,1,1,0,0,0,.65-.21,1,1,0,0,0,.34-.58h1.86a2.74,2.74,0,0,1-.94,1.69,2.88,2.88,0,0,1-1.87.61,3.12,3.12,0,0,1-1.5-.35,2.53,2.53,0,0,1-1-1,3.27,3.27,0,0,1-.37-1.57,3.08,3.08,0,0,1,.37-1.57,2.6,2.6,0,0,1,1-1,3.14,3.14,0,0,1,1.51-.35A2.91,2.91,0,0,1,722.85,49.81Z"/><path class="cls-1" d="M730.12,52.46h-4a1.29,1.29,0,0,0,.33.94,1.08,1.08,0,0,0,.77.28,1,1,0,0,0,.64-.2.84.84,0,0,0,.34-.5h1.87a2.7,2.7,0,0,1-.49,1.09,2.64,2.64,0,0,1-1,.75,3,3,0,0,1-1.31.27,3.12,3.12,0,0,1-1.5-.35,2.53,2.53,0,0,1-1-1,3.27,3.27,0,0,1-.37-1.57,3.08,3.08,0,0,1,.37-1.57,2.53,2.53,0,0,1,1-1,3.41,3.41,0,0,1,3,0,2.53,2.53,0,0,1,1,1,3,3,0,0,1,.35,1.46A2.64,2.64,0,0,1,730.12,52.46Zm-2-1.59a1.25,1.25,0,0,0-1.59,0,1.17,1.17,0,0,0-.36.84h2.25a1,1,0,0,0-.33-.85Z"/><path class="cls-1" d="M736,49.55a2.53,2.53,0,0,1,.89,1,4,4,0,0,1,0,3.14,2.46,2.46,0,0,1-.89,1,2.28,2.28,0,0,1-1.27.35,2.07,2.07,0,0,1-1.14-.3,1.76,1.76,0,0,1-.69-.81v1h-1.76V47.3h1.76v2.92a1.76,1.76,0,0,1,.69-.81,2.16,2.16,0,0,1,1.14-.3A2.32,2.32,0,0,1,736,49.55Zm-2.75,1.57a1.62,1.62,0,0,0,0,2,1.26,1.26,0,0,0,1.79,0l0,0a1.44,1.44,0,0,0,.35-1,1.48,1.48,0,0,0-.35-1A1.29,1.29,0,0,0,733.2,51.12Z"/><path class="cls-1" d="M742.3,49.55a2.69,2.69,0,0,1,1.06,1,3.34,3.34,0,0,1,0,3.13,2.62,2.62,0,0,1-1.06,1,3.54,3.54,0,0,1-3.07,0,2.55,2.55,0,0,1-1.06-1,3.08,3.08,0,0,1-.39-1.57,3,3,0,0,1,.39-1.56,2.62,2.62,0,0,1,1.06-1,3.54,3.54,0,0,1,3.07,0Zm-2.38,1.54a1.48,1.48,0,0,0-.35,1,1.45,1.45,0,0,0,.35,1.06,1.11,1.11,0,0,0,.85.36,1.08,1.08,0,0,0,.84-.36,1.54,1.54,0,0,0,.34-1.06,1.52,1.52,0,0,0-.34-1,1.15,1.15,0,0,0-1.69,0Z"/><path class="cls-1" d="M748.89,49.55a2.69,2.69,0,0,1,1.06,1,3.41,3.41,0,0,1,0,3.13,2.62,2.62,0,0,1-1.06,1,3.54,3.54,0,0,1-3.07,0,2.52,2.52,0,0,1-1.07-1,3.41,3.41,0,0,1,0-3.13,2.58,2.58,0,0,1,1.07-1,3.54,3.54,0,0,1,3.07,0Zm-2.39,1.54a1.42,1.42,0,0,0-.34,1,1.45,1.45,0,0,0,.34,1.06,1.11,1.11,0,0,0,.86.36,1.08,1.08,0,0,0,.84-.36,1.54,1.54,0,0,0,.34-1.06,1.52,1.52,0,0,0-.34-1,1.11,1.11,0,0,0-.84-.37A1.16,1.16,0,0,0,746.5,51.09Z"/><path class="cls-1" d="M754.73,55,753,52.58V55h-1.76V47.39H753v4.19l1.72-2.31h2.08l-2.32,2.87L756.86,55Z"/><path class="cls-1" d="M710.64,61.78V69h-1.76V64.49L707.32,69h-1.58l-1.58-4.54V69H702.4V61.78h2.15l2,5,1.93-5Z"/><path class="cls-1" d="M717.22,66.46h-4a1.29,1.29,0,0,0,.33.94,1.17,1.17,0,0,0,1.42.08,1,1,0,0,0,.34-.5h1.86a2.45,2.45,0,0,1-.49,1.09,2.64,2.64,0,0,1-1,.75,3,3,0,0,1-1.31.27,3.12,3.12,0,0,1-1.5-.35,2.53,2.53,0,0,1-1-1,3.27,3.27,0,0,1-.37-1.57,3.08,3.08,0,0,1,.37-1.57,2.53,2.53,0,0,1,1-1,3.41,3.41,0,0,1,3,0,2.53,2.53,0,0,1,1,1,3,3,0,0,1,.35,1.46A2.64,2.64,0,0,1,717.22,66.46Zm-2-1.59a1.25,1.25,0,0,0-1.59,0,1.17,1.17,0,0,0-.36.84h2.25a1,1,0,0,0-.33-.85Z"/><path class="cls-1" d="M722,63.74a2.4,2.4,0,0,1,.82,1.45H721.2a1,1,0,0,0-.32-.56,1,1,0,0,0-.64-.2.72.72,0,0,0-.45.13.44.44,0,0,0-.16.37.43.43,0,0,0,.29.4,4.37,4.37,0,0,0,.89.27,11,11,0,0,1,1.08.31,1.88,1.88,0,0,1,.73.52,1.49,1.49,0,0,1,.31,1,1.52,1.52,0,0,1-.27.88,1.65,1.65,0,0,1-.77.59,2.86,2.86,0,0,1-1.19.22,3.1,3.1,0,0,1-1.87-.51,2.24,2.24,0,0,1-.86-1.48h1.67a.72.72,0,0,0,.31.57,1.2,1.2,0,0,0,.71.2.67.67,0,0,0,.45-.14.51.51,0,0,0,.15-.37A.45.45,0,0,0,721,67a7.45,7.45,0,0,0-.92-.27,6.75,6.75,0,0,1-1-.29,1.62,1.62,0,0,1-.71-.5,1.38,1.38,0,0,1-.3-.94,1.5,1.5,0,0,1,.58-1.25,3.17,3.17,0,0,1,3.4,0Z"/><path class="cls-1" d="M727.75,63.74a2.4,2.4,0,0,1,.82,1.45h-1.65a1,1,0,0,0-.32-.56,1,1,0,0,0-.64-.2.72.72,0,0,0-.45.13.44.44,0,0,0-.16.37.43.43,0,0,0,.29.4,4.37,4.37,0,0,0,.89.27,11,11,0,0,1,1.08.31,1.88,1.88,0,0,1,.73.52,1.49,1.49,0,0,1,.31,1,1.52,1.52,0,0,1-.27.88,1.65,1.65,0,0,1-.77.59,2.86,2.86,0,0,1-1.19.22,3.1,3.1,0,0,1-1.87-.51,2.13,2.13,0,0,1-.85-1.48h1.7a.72.72,0,0,0,.31.57,1.2,1.2,0,0,0,.71.2.67.67,0,0,0,.45-.14.51.51,0,0,0,.15-.37.45.45,0,0,0-.28-.43,7.45,7.45,0,0,0-.92-.27,7.4,7.4,0,0,1-1.05-.29,1.56,1.56,0,0,1-.71-.5,1.38,1.38,0,0,1-.3-.94,1.5,1.5,0,0,1,.58-1.25,2.65,2.65,0,0,1,1.66-.48A2.69,2.69,0,0,1,727.75,63.74Z"/><path class="cls-1" d="M735,66.46h-4a1.34,1.34,0,0,0,.33.94,1.17,1.17,0,0,0,1.42.08,1,1,0,0,0,.34-.5H735a2.45,2.45,0,0,1-.49,1.09,2.64,2.64,0,0,1-1,.75,3,3,0,0,1-1.31.27,3.12,3.12,0,0,1-1.5-.35,2.53,2.53,0,0,1-1-1,3.27,3.27,0,0,1-.37-1.57,3.08,3.08,0,0,1,.37-1.57,2.53,2.53,0,0,1,1-1,3.41,3.41,0,0,1,3,0,2.53,2.53,0,0,1,1,1,3,3,0,0,1,.35,1.46A2.64,2.64,0,0,1,735,66.46Zm-2-1.59a1.25,1.25,0,0,0-1.59,0,1.17,1.17,0,0,0-.36.84h2.25a1,1,0,0,0-.33-.85Z"/><path class="cls-1" d="M741.23,63.87a2.7,2.7,0,0,1,.59,1.81V69h-1.77V65.89a1.32,1.32,0,0,0-.3-.91,1.11,1.11,0,0,0-.81-.32,1.09,1.09,0,0,0-.85.34,1.36,1.36,0,0,0-.32,1v3H736V63.27h1.76v1a1.93,1.93,0,0,1,.74-.81,2.2,2.2,0,0,1,1.15-.3A2,2,0,0,1,741.23,63.87Z"/><path class="cls-1" d="M746.3,63.5a1.84,1.84,0,0,1,.7.81v-1h1.75V69a3.29,3.29,0,0,1-.31,1.45,2.3,2.3,0,0,1-1,1,3,3,0,0,1-1.58.38,3.23,3.23,0,0,1-2.08-.61,2.44,2.44,0,0,1-.93-1.66h1.74a.86.86,0,0,0,.37.54,1.39,1.39,0,0,0,.77.2,1.2,1.2,0,0,0,.86-.3,1.31,1.31,0,0,0,.34-1V68a1.78,1.78,0,0,1-.7.81,2.1,2.1,0,0,1-1.14.3,2.36,2.36,0,0,1-1.27-.35,2.46,2.46,0,0,1-.89-1,4,4,0,0,1,0-3.14,2.53,2.53,0,0,1,.89-1,2.28,2.28,0,0,1,1.27-.35A2.24,2.24,0,0,1,746.3,63.5Zm-1.48,1.61a1.48,1.48,0,0,0-.35,1,1.4,1.4,0,0,0,.35,1,1.26,1.26,0,0,0,1.79,0l0,0a1.62,1.62,0,0,0,0-2,1.22,1.22,0,0,0-.91-.38A1.19,1.19,0,0,0,744.82,65.11Z"/><path class="cls-1" d="M755.38,66.46h-4a1.29,1.29,0,0,0,.33.94,1.16,1.16,0,0,0,1.41.08.87.87,0,0,0,.34-.5h1.87a2.49,2.49,0,0,1-1.5,1.84,2.92,2.92,0,0,1-1.3.27,3.12,3.12,0,0,1-1.5-.35,2.53,2.53,0,0,1-1-1,3.54,3.54,0,0,1,0-3.14,2.53,2.53,0,0,1,1-1,3.41,3.41,0,0,1,3,0,2.53,2.53,0,0,1,1,1,3,3,0,0,1,.35,1.46C755.39,66.2,755.39,66.33,755.38,66.46Zm-2-1.59a1.1,1.1,0,0,0-.77-.28,1.14,1.14,0,0,0-.81.29,1.17,1.17,0,0,0-.36.84h2.2a1.08,1.08,0,0,0-.3-.85Z"/><path class="cls-1" d="M759,63.52a2.23,2.23,0,0,1,1.13-.31v1.88h-.51a1.7,1.7,0,0,0-1.08.3,1.2,1.2,0,0,0-.39,1V69h-1.76V63.27h1.76v1.08A2.41,2.41,0,0,1,759,63.52Z"/></g></g></svg>