<svg xmlns="http://www.w3.org/2000/svg" viewBox="0 0 646.3 121.46"><defs><style>.cls-1{fill:#fff;}.cls-2{fill:#f9b702;}.cls-3{fill:#f9b811;}</style></defs><g id="Слой_2" data-name="Слой 2"><g id="Слой_1-2" data-name="Слой 1"><g id="Слой_2-2" data-name="Слой 2"><g id="Layer_1" data-name="Layer 1"><path class="cls-1" d="M112.89,121.46H44.05a1.13,1.13,0,0,1-1-.55L8.66,61.29a1.12,1.12,0,0,1,0-1.12L43.08.56a1.11,1.11,0,0,1,1-.56h68.84a1.12,1.12,0,0,1,1,.56l34.42,59.61a1.12,1.12,0,0,1,0,1.12l-34.42,59.62A1.13,1.13,0,0,1,112.89,121.46Zm-68.2-2.23h67.55L146,60.73,112.24,2.23H44.69L10.91,60.73Z"/><path class="cls-2" d="M108.87,113.8H48.06a.41.41,0,0,1-.36-.21L17.3,60.94a.45.45,0,0,1,0-.42L47.7,7.87a.41.41,0,0,1,.36-.21h60.81a.42.42,0,0,1,.36.21l30.4,52.65a.45.45,0,0,1,0,.42l-30.4,52.65A.42.42,0,0,1,108.87,113.8ZM48.31,113h60.31l30.16-52.24L108.62,8.49H48.31L18.15,60.73Z"/><path class="cls-3" d="M108.87,114.3H48.06a1,1,0,0,1-.79-.45L16.86,61.19a1,1,0,0,1,0-.9L47.27,7.62a.93.93,0,0,1,.78-.46h60.82a.91.91,0,0,1,.79.46l30.4,52.65a.93.93,0,0,1,0,.9l-30.41,52.67A.91.91,0,0,1,108.87,114.3ZM48.6,112.5h59.73L138.2,60.76,108.33,9H48.6L18.73,60.73Z"/><path class="cls-2" d="M137.8,93.27a.54.54,0,0,1-.28-.08.55.55,0,0,1-.21-.75h0l18.3-31.7L137.32,29a.57.57,0,0,1,1-.55h0l18.46,32a.56.56,0,0,1,0,.56l-18.5,32A.56.56,0,0,1,137.8,93.27Z"/><path class="cls-2" d="M139.67,93.66a2.09,2.09,0,1,1-.77-2.86A2.09,2.09,0,0,1,139.67,93.66Z"/><path class="cls-2" d="M139.67,27.8a2.09,2.09,0,1,0-.77,2.86A2.09,2.09,0,0,0,139.67,27.8Z"/><path class="cls-2" d="M19,93.27a.56.56,0,0,1-.48-.28L.07,61a.61.61,0,0,1,0-.56l18.47-32a.55.55,0,0,1,.77-.22.56.56,0,0,1,.23.77L1.2,60.73l18.3,31.7a.55.55,0,0,1-.19.75h0A.64.64,0,0,1,19,93.27Z"/><circle class="cls-2" cx="18.97" cy="28.84" r="2.09"/><path class="cls-2" d="M17.15,93.66a2.09,2.09,0,1,0,.77-2.86,2.08,2.08,0,0,0-.77,2.86Z"/></g></g><path class="cls-1" d="M45.24,48.45a2.89,2.89,0,0,1,1.11,1.82H44.48a1.39,1.39,0,0,0-.57-.63,1.76,1.76,0,0,0-.91-.23,1.71,1.71,0,0,0-1.34.56,2.18,2.18,0,0,0-.51,1.52,2.24,2.24,0,0,0,.53,1.6,2,2,0,0,0,1.51.56,1.81,1.81,0,0,0,1.1-.35,1.83,1.83,0,0,0,.67-1H42.74V51.05h3.7v1.74A3.68,3.68,0,0,1,45.78,54a3.34,3.34,0,0,1-1.16.88A3.63,3.63,0,0,1,43,55.2a3.76,3.76,0,0,1-1.93-.47,3.21,3.21,0,0,1-1.27-1.31,4.36,4.36,0,0,1,0-3.86,3.25,3.25,0,0,1,1.26-1.31A3.85,3.85,0,0,1,43,47.78,3.67,3.67,0,0,1,45.24,48.45Z"/><path class="cls-1" d="M50,49.64a2.14,2.14,0,0,1,1.13-.31v1.88h-.5a1.73,1.73,0,0,0-1.09.3,1.2,1.2,0,0,0-.39,1v2.62H47.43V49.39h1.76v1.08A2.41,2.41,0,0,1,50,49.64Z"/><path class="cls-1" d="M56.13,49.67a2.57,2.57,0,0,1,1.06,1,3.07,3.07,0,0,1,.39,1.57,3,3,0,0,1-.39,1.56,2.57,2.57,0,0,1-1.06,1,3.52,3.52,0,0,1-3.06,0,2.59,2.59,0,0,1-1.07-1,3,3,0,0,1-.39-1.56A3.07,3.07,0,0,1,52,50.7a2.59,2.59,0,0,1,1.07-1,3.52,3.52,0,0,1,3.06,0Zm-2.38,1.54a1.81,1.81,0,0,0,0,2.11,1.14,1.14,0,0,0,.85.36,1.13,1.13,0,0,0,.85-.36,1.81,1.81,0,0,0,0-2.11,1.1,1.1,0,0,0-.85-.37A1.11,1.11,0,0,0,53.75,51.21Z"/><path class="cls-1" d="M66.91,49.39l-1.47,5.75h-2l-1-3.85-1.06,3.85h-2l-1.48-5.75h1.76l.77,4.14,1.07-4.14H63.4l1.11,4.15.76-4.15Z"/><path class="cls-1" d="M75.24,48.51a3.36,3.36,0,0,1,1.18,2H74.56a1.72,1.72,0,0,0-.64-.79,1.77,1.77,0,0,0-1-.29,1.55,1.55,0,0,0-1.25.57,2.66,2.66,0,0,0,0,3,1.54,1.54,0,0,0,1.25.56,1.69,1.69,0,0,0,1.65-1.07h1.86a3.39,3.39,0,0,1-1.18,2,3.54,3.54,0,0,1-2.3.73,3.58,3.58,0,0,1-1.87-.47,3.2,3.2,0,0,1-1.24-1.31,4.45,4.45,0,0,1,0-3.86,3.2,3.2,0,0,1,1.24-1.31,3.68,3.68,0,0,1,1.87-.47A3.6,3.6,0,0,1,75.24,48.51Z"/><path class="cls-1" d="M81.63,49.67a2.57,2.57,0,0,1,1.06,1,3.07,3.07,0,0,1,.39,1.57,3,3,0,0,1-.39,1.56,2.57,2.57,0,0,1-1.06,1,3.52,3.52,0,0,1-3.06,0,2.59,2.59,0,0,1-1.07-1,3,3,0,0,1-.39-1.56,3.07,3.07,0,0,1,.39-1.57,2.59,2.59,0,0,1,1.07-1,3.52,3.52,0,0,1,3.06,0Zm-2.38,1.54a1.81,1.81,0,0,0,0,2.11,1.18,1.18,0,0,0,1.7,0,1.81,1.81,0,0,0,0-2.11,1.16,1.16,0,0,0-1.7,0Z"/><path class="cls-1" d="M89.22,50a2.63,2.63,0,0,1,.58,1.81v3.34H88V52a1.22,1.22,0,0,0-.31-.9,1,1,0,0,0-.81-.33,1.1,1.1,0,0,0-.85.34,1.38,1.38,0,0,0-.31,1v3H84V49.39h1.76v1a1.93,1.93,0,0,1,.74-.81,2.14,2.14,0,0,1,1.15-.3A2,2,0,0,1,89.22,50Z"/><path class="cls-1" d="M94.22,53.63v1.51h-.79a2.28,2.28,0,0,1-1.57-.5A2.09,2.09,0,0,1,91.29,53V50.87h-.77V49.39h.77V48h1.77v1.41h1.15v1.48H93.06V53a.62.62,0,0,0,.14.47.66.66,0,0,0,.47.14Z"/><path class="cls-1" d="M98.53,49.62a1.78,1.78,0,0,1,.7.81v-1H101v5.75H99.23v-1a1.78,1.78,0,0,1-.7.81,2.07,2.07,0,0,1-1.13.3,2.28,2.28,0,0,1-2.16-1.38,3.48,3.48,0,0,1-.33-1.56,3.54,3.54,0,0,1,.33-1.58,2.45,2.45,0,0,1,.88-1,2.41,2.41,0,0,1,1.28-.35A2.07,2.07,0,0,1,98.53,49.62Zm-1.48,1.61a1.75,1.75,0,0,0,0,2.07,1.3,1.3,0,0,0,1.83,0,1.49,1.49,0,0,0,.35-1,1.46,1.46,0,0,0-.35-1,1.3,1.3,0,0,0-1.83,0Z"/><path class="cls-1" d="M106.66,49.93a2.73,2.73,0,0,1,1,1.69h-1.86a1,1,0,0,0-.34-.58,1,1,0,0,0-.65-.21.94.94,0,0,0-.77.37,2,2,0,0,0,0,2.13.94.94,0,0,0,.77.37,1,1,0,0,0,.65-.21,1,1,0,0,0,.34-.58h1.86a2.73,2.73,0,0,1-1,1.69,2.83,2.83,0,0,1-1.86.61,3.13,3.13,0,0,1-1.5-.35,2.55,2.55,0,0,1-1-1,3.13,3.13,0,0,1-.37-1.56,3.18,3.18,0,0,1,.37-1.58,2.51,2.51,0,0,1,1-1,3.2,3.2,0,0,1,1.51-.35A2.83,2.83,0,0,1,106.66,49.93Z"/><path class="cls-1" d="M111.79,53.63v1.51H111a2.29,2.29,0,0,1-1.57-.5,2.12,2.12,0,0,1-.56-1.65V50.87h-.77V49.39h.77V48h1.76v1.41h1.16v1.48h-1.16V53a.52.52,0,0,0,.61.61Z"/><path class="cls-1" d="M116.61,49.86a2.38,2.38,0,0,1,.82,1.45h-1.65a.84.84,0,0,0-.32-.55,1,1,0,0,0-.63-.21.76.76,0,0,0-.46.13.47.47,0,0,0-.15.37.42.42,0,0,0,.28.4,4.62,4.62,0,0,0,.89.27,10.34,10.34,0,0,1,1.09.31,1.85,1.85,0,0,1,.73.52,1.48,1.48,0,0,1,.31,1,1.5,1.5,0,0,1-.27.88,1.89,1.89,0,0,1-.77.6,3.62,3.62,0,0,1-3.07-.3,2.21,2.21,0,0,1-.85-1.48h1.7a.78.78,0,0,0,.31.57,1.22,1.22,0,0,0,.71.2.65.65,0,0,0,.45-.14.47.47,0,0,0,.16-.37.45.45,0,0,0-.29-.43,5.77,5.77,0,0,0-.92-.27,7.91,7.91,0,0,1-1.05-.29,1.68,1.68,0,0,1-.71-.5,1.38,1.38,0,0,1-.3-.94,1.54,1.54,0,0,1,.59-1.25,2.55,2.55,0,0,1,1.66-.48A2.62,2.62,0,0,1,116.61,49.86Z"/><path class="cls-1" d="M49,69.14H47.86l-3.54-5.37v5.37H43.15V61.87h1.17l3.54,5.39V61.87H49Z"/><path class="cls-1" d="M55.69,63.46v5.68H54.5V67.9a1.8,1.8,0,0,1-.75,1,2.23,2.23,0,0,1-1.25.34,2.06,2.06,0,0,1-1.58-.64,2.54,2.54,0,0,1-.6-1.82v-3.3H51.5v3.18a1.69,1.69,0,0,0,.39,1.19,1.37,1.37,0,0,0,1.07.41,1.45,1.45,0,0,0,1.12-.45,1.87,1.87,0,0,0,.42-1.32v-3Z"/><path class="cls-1" d="M59.1,63.69a2.41,2.41,0,0,1,1.24-.32v1.28H60a1.91,1.91,0,0,0-1.24.37,1.49,1.49,0,0,0-.47,1.25v2.87H57.1V63.46h1.18v1.11A2.17,2.17,0,0,1,59.1,63.69Z"/><path class="cls-1" d="M64.07,68.12v1h-.72a1.63,1.63,0,0,1-1.85-1.9V64.46h-.81v-1h.81V62.05h1.19v1.41h1.37v1H62.69v2.8a.94.94,0,0,0,.18.67.83.83,0,0,0,.63.19Z"/><path class="cls-1" d="M70.41,63.46v5.68H69.22V67.9a1.8,1.8,0,0,1-.75,1,2.25,2.25,0,0,1-1.25.34,2,2,0,0,1-1.58-.64,2.54,2.54,0,0,1-.6-1.82v-3.3h1.17v3.18a1.69,1.69,0,0,0,.39,1.19,1.41,1.41,0,0,0,1.08.41,1.47,1.47,0,0,0,1.12-.45,1.87,1.87,0,0,0,.42-1.32v-3Z"/><path class="cls-1" d="M73.82,63.69a2.41,2.41,0,0,1,1.24-.32v1.28h-.35a2,2,0,0,0-1.25.37A1.52,1.52,0,0,0,73,66.27v2.87H71.82V63.46H73v1.11A2.17,2.17,0,0,1,73.82,63.69Z"/><path class="cls-1" d="M81.17,66.53H76.8a1.78,1.78,0,0,0,.48,1.3,1.6,1.6,0,0,0,1.13.42,1.68,1.68,0,0,0,1-.29,1.25,1.25,0,0,0,.5-.8h1.26a2.5,2.5,0,0,1-.48,1.06,2.41,2.41,0,0,1-.93.73,3,3,0,0,1-1.29.26A2.9,2.9,0,0,1,77,68.86a2.56,2.56,0,0,1-1-1,3.52,3.52,0,0,1,0-3.1,2.56,2.56,0,0,1,1-1,3.26,3.26,0,0,1,2.92,0,2.41,2.41,0,0,1,1,1A2.68,2.68,0,0,1,81.21,66,2.47,2.47,0,0,1,81.17,66.53Zm-1.34-1.47a1.31,1.31,0,0,0-.57-.55,1.8,1.8,0,0,0-.8-.18,1.67,1.67,0,0,0-1.16.42A1.73,1.73,0,0,0,76.8,66H80A1.74,1.74,0,0,0,79.83,65.06Z"/><path class="cls-1" d="M85.93,68.22h2.52v.92H84.76V61.86h1.17Z"/><path class="cls-1" d="M94.6,66.53H90.23a1.78,1.78,0,0,0,.48,1.3,1.61,1.61,0,0,0,1.13.42,1.68,1.68,0,0,0,1-.29,1.25,1.25,0,0,0,.5-.8h1.26a2.5,2.5,0,0,1-.48,1.06,2.41,2.41,0,0,1-.93.73,3,3,0,0,1-1.29.26,2.9,2.9,0,0,1-1.46-.35,2.56,2.56,0,0,1-1-1,3.52,3.52,0,0,1,0-3.1,2.56,2.56,0,0,1,1-1,3.26,3.26,0,0,1,2.92,0,2.41,2.41,0,0,1,1,1A2.68,2.68,0,0,1,94.64,66,2.47,2.47,0,0,1,94.6,66.53Zm-1.34-1.47a1.31,1.31,0,0,0-.57-.55,1.8,1.8,0,0,0-.8-.18,1.67,1.67,0,0,0-1.16.42,1.73,1.73,0,0,0-.5,1.25h3.22A1.74,1.74,0,0,0,93.26,65.06Z"/><path class="cls-1" d="M99.37,63.77a2.09,2.09,0,0,1,.77,1V63.46h1.18v5.68h-1.18V67.82a2,2,0,0,1-.77,1,2.19,2.19,0,0,1-1.32.38,2.46,2.46,0,0,1-1.32-.35,2.38,2.38,0,0,1-.92-1,3.81,3.81,0,0,1,0-3.1,2.38,2.38,0,0,1,.92-1,2.55,2.55,0,0,1,1.32-.35A2.26,2.26,0,0,1,99.37,63.77Zm-2.21,1.15a2.25,2.25,0,0,0,0,2.75,1.61,1.61,0,0,0,1.25.5,1.76,1.76,0,0,0,.89-.23,1.62,1.62,0,0,0,.62-.65,2.12,2.12,0,0,0,.22-1,2.09,2.09,0,0,0-.22-1,1.71,1.71,0,0,0-.62-.66,1.76,1.76,0,0,0-.89-.23A1.64,1.64,0,0,0,97.16,64.92Z"/><path class="cls-1" d="M106.33,63.77a2,2,0,0,1,.76,1V61.51h1.19v7.63h-1.19V67.82a2,2,0,0,1-.76,1,2.23,2.23,0,0,1-1.32.38,2.47,2.47,0,0,1-1.33-.35,2.42,2.42,0,0,1-.91-1,3.81,3.81,0,0,1,0-3.1,2.42,2.42,0,0,1,.91-1,2.56,2.56,0,0,1,1.33-.35A2.3,2.3,0,0,1,106.33,63.77Zm-2.21,1.15a2.25,2.25,0,0,0,0,2.75,1.61,1.61,0,0,0,1.25.5,1.79,1.79,0,0,0,.89-.23,1.6,1.6,0,0,0,.61-.65,2,2,0,0,0,.23-1,2,2,0,0,0-.23-1,1.69,1.69,0,0,0-.61-.66,1.79,1.79,0,0,0-.89-.23A1.64,1.64,0,0,0,104.12,64.92Z"/><path class="cls-1" d="M113.16,63.9a2.15,2.15,0,0,1,.73,1.37h-1.11a1.2,1.2,0,0,0-.4-.75,1.24,1.24,0,0,0-.86-.29,1,1,0,0,0-.68.22.73.73,0,0,0-.25.57.55.55,0,0,0,.18.43,1.2,1.2,0,0,0,.44.26,6.22,6.22,0,0,0,.75.2,8.48,8.48,0,0,1,1,.3,1.75,1.75,0,0,1,.68.49,1.39,1.39,0,0,1,.29.92,1.44,1.44,0,0,1-.55,1.15,2.18,2.18,0,0,1-1.45.44,2.78,2.78,0,0,1-1.72-.49,2,2,0,0,1-.79-1.38h1.14a1.1,1.1,0,0,0,.42.75,1.48,1.48,0,0,0,.95.29,1,1,0,0,0,.66-.22.75.75,0,0,0,.24-.57.64.64,0,0,0-.18-.47,1.21,1.21,0,0,0-.47-.27,4.48,4.48,0,0,0-.76-.2,10.21,10.21,0,0,1-1-.29,1.55,1.55,0,0,1-.66-.47,1.29,1.29,0,0,1-.28-.88,1.45,1.45,0,0,1,.54-1.17,2.28,2.28,0,0,1,1.5-.45A2.43,2.43,0,0,1,113.16,63.9Z"/><g id="Слой_2-3" data-name="Слой 2"><g id="Layer_1-2" data-name="Layer 1"><path class="cls-1" d="M276,121.46H207.2a1.12,1.12,0,0,1-1-.55L171.81,61.29a1.12,1.12,0,0,1,0-1.12L206.23.56a1.1,1.1,0,0,1,1-.56h68.84a1.12,1.12,0,0,1,1,.56l34.42,59.61a1.12,1.12,0,0,1,0,1.12l-34.42,59.62A1.14,1.14,0,0,1,276,121.46Zm-68.2-2.23h67.55l33.76-58.5L275.39,2.23H207.84l-33.78,58.5Z"/><path class="cls-2" d="M272,113.8H211.21a.41.41,0,0,1-.36-.21l-30.4-52.65a.45.45,0,0,1,0-.42l30.4-52.65a.41.41,0,0,1,.36-.21H272a.43.43,0,0,1,.36.21l30.4,52.65a.45.45,0,0,1,0,.42l-30.4,52.65A.43.43,0,0,1,272,113.8Zm-60.56-.8h60.31l30.16-52.24L271.77,8.49H211.46L181.3,60.73Z"/><path class="cls-3" d="M272,114.3H211.21a.93.93,0,0,1-.79-.45L180,61.19a1,1,0,0,1,0-.9L210.41,7.62a1,1,0,0,1,.79-.46H272a.92.92,0,0,1,.79.46l30.4,52.65a.93.93,0,0,1,0,.9l-30.41,52.67A.92.92,0,0,1,272,114.3Zm-60.28-1.8h59.74l29.87-51.74L271.48,9H211.74L181.87,60.73Z"/><path class="cls-2" d="M301,93.27a.54.54,0,0,1-.28-.08.55.55,0,0,1-.21-.75h0l18.3-31.7L300.47,29a.57.57,0,0,1,1-.55h0l18.46,32a.56.56,0,0,1,0,.56l-18.5,32A.56.56,0,0,1,301,93.27Z"/><path class="cls-2" d="M302.82,93.66a2.09,2.09,0,1,1-.77-2.86A2.09,2.09,0,0,1,302.82,93.66Z"/><path class="cls-2" d="M302.82,27.8a2.09,2.09,0,1,0-.77,2.86A2.09,2.09,0,0,0,302.82,27.8Z"/><path class="cls-2" d="M182.15,93.27a.55.55,0,0,1-.48-.28L163.22,61a.61.61,0,0,1,0-.56l18.47-32a.55.55,0,0,1,.77-.22.56.56,0,0,1,.23.77L164.35,60.73l18.3,31.7a.55.55,0,0,1-.19.75h0A.67.67,0,0,1,182.15,93.27Z"/><circle class="cls-2" cx="182.12" cy="28.84" r="2.09"/><path class="cls-2" d="M180.3,93.66a2.09,2.09,0,1,0,.77-2.86,2.08,2.08,0,0,0-.77,2.86Z"/></g></g><path class="cls-1" d="M218.69,48.45a2.89,2.89,0,0,1,1.11,1.82h-1.87a1.39,1.39,0,0,0-.57-.63,1.76,1.76,0,0,0-.91-.23,1.71,1.71,0,0,0-1.34.56,2.18,2.18,0,0,0-.51,1.52,2.24,2.24,0,0,0,.53,1.6,2,2,0,0,0,1.51.56,1.81,1.81,0,0,0,1.1-.35,1.83,1.83,0,0,0,.67-1h-2.22V51.05h3.7v1.74a3.68,3.68,0,0,1-.66,1.19,3.34,3.34,0,0,1-1.16.88,3.63,3.63,0,0,1-1.61.34,3.76,3.76,0,0,1-1.93-.47,3.21,3.21,0,0,1-1.27-1.31,4.36,4.36,0,0,1,0-3.86,3.25,3.25,0,0,1,1.26-1.31,3.85,3.85,0,0,1,1.92-.47A3.67,3.67,0,0,1,218.69,48.45Z"/><path class="cls-1" d="M223.49,49.64a2.14,2.14,0,0,1,1.13-.31v1.88h-.51a1.71,1.71,0,0,0-1.08.3,1.2,1.2,0,0,0-.39,1v2.62h-1.76V49.39h1.76v1.08A2.41,2.41,0,0,1,223.49,49.64Z"/><path class="cls-1" d="M229.58,49.67a2.57,2.57,0,0,1,1.06,1,3.07,3.07,0,0,1,.39,1.57,3,3,0,0,1-.39,1.56,2.57,2.57,0,0,1-1.06,1,3.52,3.52,0,0,1-3.06,0,2.59,2.59,0,0,1-1.07-1,3,3,0,0,1-.39-1.56,3.07,3.07,0,0,1,.39-1.57,2.59,2.59,0,0,1,1.07-1,3.52,3.52,0,0,1,3.06,0Zm-2.38,1.54a1.81,1.81,0,0,0,0,2.11,1.18,1.18,0,0,0,1.7,0,1.81,1.81,0,0,0,0-2.11,1.16,1.16,0,0,0-1.7,0Z"/><path class="cls-1" d="M240.36,49.39l-1.48,5.75h-2l-1-3.85-1.06,3.85h-2l-1.47-5.75h1.76l.77,4.14L235,49.39h1.87L238,53.54l.76-4.15Z"/><path class="cls-1" d="M248,54.15a2,2,0,0,1-.86.77,3,3,0,0,1-1.39.29,3.25,3.25,0,0,1-2-.6,2.15,2.15,0,0,1-.87-1.66h1.88a1,1,0,0,0,.29.64.92.92,0,0,0,.65.24.76.76,0,0,0,.53-.18.67.67,0,0,0,.2-.5.63.63,0,0,0-.18-.46,1.34,1.34,0,0,0-.45-.31c-.18-.08-.43-.17-.74-.28a9,9,0,0,1-1.13-.46,2.13,2.13,0,0,1-.75-.66,1.9,1.9,0,0,1-.32-1.14,1.92,1.92,0,0,1,.33-1.12,2.13,2.13,0,0,1,.91-.73,3.34,3.34,0,0,1,1.34-.25,3,3,0,0,1,1.93.58,2.17,2.17,0,0,1,.81,1.58h-1.91a1,1,0,0,0-.26-.57.77.77,0,0,0-.57-.21.74.74,0,0,0-.5.17.59.59,0,0,0-.19.48.64.64,0,0,0,.17.44,1.13,1.13,0,0,0,.43.29c.17.08.42.17.74.29a8.46,8.46,0,0,1,1.14.47,2.16,2.16,0,0,1,.77.68,1.93,1.93,0,0,1,.31,1.15A2,2,0,0,1,248,54.15Z"/><path class="cls-1" d="M252.59,49.62a1.78,1.78,0,0,1,.7.81v-1h1.76v5.75h-1.76v-1a1.78,1.78,0,0,1-.7.81,2,2,0,0,1-1.13.3,2.38,2.38,0,0,1-1.27-.35,2.44,2.44,0,0,1-.89-1,3.48,3.48,0,0,1-.32-1.56,3.54,3.54,0,0,1,.32-1.58,2.47,2.47,0,0,1,.89-1,2.38,2.38,0,0,1,1.27-.35A2,2,0,0,1,252.59,49.62Zm-1.48,1.61a1.75,1.75,0,0,0,0,2.07,1.23,1.23,0,0,0,.92.37,1.21,1.21,0,0,0,.91-.38,1.44,1.44,0,0,0,.35-1,1.42,1.42,0,0,0-.35-1,1.21,1.21,0,0,0-.91-.38A1.23,1.23,0,0,0,251.11,51.23Z"/><path class="cls-1" d="M258,47.51v7.63h-1.76V47.51Z"/><path class="cls-1" d="M264.65,52.58h-4a1.34,1.34,0,0,0,.33.94,1.2,1.2,0,0,0,1.42.09,1,1,0,0,0,.34-.51h1.86a2.41,2.41,0,0,1-.49,1.09,2.67,2.67,0,0,1-1,.75,3.1,3.1,0,0,1-1.31.27,3.13,3.13,0,0,1-1.5-.35,2.55,2.55,0,0,1-1-1,3.24,3.24,0,0,1-.37-1.56,3.18,3.18,0,0,1,.37-1.58,2.51,2.51,0,0,1,1-1,3.2,3.2,0,0,1,1.51-.35,3,3,0,0,1,1.5.35,2.45,2.45,0,0,1,1,1,3,3,0,0,1,.35,1.46A2,2,0,0,1,264.65,52.58Zm-2-1.59a1.12,1.12,0,0,0-.78-.28A1.15,1.15,0,0,0,261,51a1.22,1.22,0,0,0-.36.84h2.25A1,1,0,0,0,262.62,51Z"/><path class="cls-1" d="M269.46,49.86a2.38,2.38,0,0,1,.82,1.45h-1.65a.92.92,0,0,0-.32-.55,1,1,0,0,0-.64-.21.71.71,0,0,0-.45.13.47.47,0,0,0-.16.37.43.43,0,0,0,.29.4,4.4,4.4,0,0,0,.89.27,9.44,9.44,0,0,1,1.08.31,1.79,1.79,0,0,1,.73.52,1.43,1.43,0,0,1,.31,1,1.5,1.5,0,0,1-.27.88,1.76,1.76,0,0,1-.77.6,3.6,3.6,0,0,1-3.06-.3,2.22,2.22,0,0,1-.86-1.48h1.7a.79.79,0,0,0,.32.57,1.19,1.19,0,0,0,.71.2.67.67,0,0,0,.45-.14.5.5,0,0,0,.15-.37.44.44,0,0,0-.28-.43,6.52,6.52,0,0,0-.92-.27,7.5,7.5,0,0,1-1-.29,1.62,1.62,0,0,1-.71-.5,1.38,1.38,0,0,1-.3-.94,1.53,1.53,0,0,1,.58-1.25,2.58,2.58,0,0,1,1.66-.48A2.67,2.67,0,0,1,269.46,49.86Z"/><path class="cls-1" d="M197.32,61.86v7.28h-1.18V61.86Z"/><path class="cls-1" d="M203.5,64a2.54,2.54,0,0,1,.6,1.82v3.31h-1.18V66a1.65,1.65,0,0,0-.39-1.18,1.39,1.39,0,0,0-1.07-.42,1.45,1.45,0,0,0-1.12.45,1.8,1.8,0,0,0-.43,1.31v3h-1.17V63.46h1.17v1.25a1.87,1.87,0,0,1,.77-1,2.21,2.21,0,0,1,1.23-.35A2.07,2.07,0,0,1,203.5,64Z"/><path class="cls-1" d="M209.82,64a2.55,2.55,0,0,1,.9,1.58h-1.25a1.4,1.4,0,0,0-.5-.84,1.63,1.63,0,0,0-1-.3,1.49,1.49,0,0,0-1.13.48,2.43,2.43,0,0,0,0,2.82,1.49,1.49,0,0,0,1.13.48,1.57,1.57,0,0,0,1-.31,1.34,1.34,0,0,0,.5-.84h1.25a2.6,2.6,0,0,1-.9,1.59,2.81,2.81,0,0,1-1.83.58,2.86,2.86,0,0,1-1.45-.35,2.43,2.43,0,0,1-1-1,3.52,3.52,0,0,1,0-3.1,2.43,2.43,0,0,1,1-1,3,3,0,0,1,1.45-.35A2.81,2.81,0,0,1,209.82,64Z"/><path class="cls-1" d="M213.85,63.69a2.41,2.41,0,0,1,1.24-.32v1.28h-.35a2,2,0,0,0-1.25.37,1.52,1.52,0,0,0-.47,1.25v2.87h-1.17V63.46H213v1.11A2.27,2.27,0,0,1,213.85,63.69Z"/><path class="cls-1" d="M221.2,66.53h-4.37a1.78,1.78,0,0,0,.48,1.3,1.6,1.6,0,0,0,1.13.42,1.68,1.68,0,0,0,1-.29,1.25,1.25,0,0,0,.5-.8h1.26a2.5,2.5,0,0,1-.48,1.06,2.41,2.41,0,0,1-.93.73,3,3,0,0,1-1.29.26,2.9,2.9,0,0,1-1.46-.35,2.49,2.49,0,0,1-1-1,3.52,3.52,0,0,1,0-3.1,2.49,2.49,0,0,1,1-1,3.26,3.26,0,0,1,2.92,0,2.41,2.41,0,0,1,1,1,2.68,2.68,0,0,1,.34,1.35A2.47,2.47,0,0,1,221.2,66.53Zm-1.34-1.47a1.31,1.31,0,0,0-.57-.55,1.8,1.8,0,0,0-.8-.18,1.67,1.67,0,0,0-1.16.42,1.69,1.69,0,0,0-.5,1.25h3.22A1.74,1.74,0,0,0,219.86,65.06Z"/><path class="cls-1" d="M226,63.77a2.09,2.09,0,0,1,.77,1V63.46h1.18v5.68h-1.18V67.82a2,2,0,0,1-.77,1,2.19,2.19,0,0,1-1.32.38,2.44,2.44,0,0,1-1.32-.35,2.38,2.38,0,0,1-.92-1,3.81,3.81,0,0,1,0-3.1,2.38,2.38,0,0,1,.92-1,2.53,2.53,0,0,1,1.32-.35A2.26,2.26,0,0,1,226,63.77Zm-2.21,1.15a2.25,2.25,0,0,0,0,2.75,1.61,1.61,0,0,0,1.25.5,1.76,1.76,0,0,0,.89-.23,1.62,1.62,0,0,0,.62-.65,2.12,2.12,0,0,0,.22-1,2.09,2.09,0,0,0-.22-1,1.71,1.71,0,0,0-.62-.66,1.76,1.76,0,0,0-.89-.23A1.64,1.64,0,0,0,223.76,64.92Z"/><path class="cls-1" d="M232.8,63.9a2.16,2.16,0,0,1,.74,1.37h-1.12a1.24,1.24,0,0,0-.39-.75,1.29,1.29,0,0,0-.87-.29,1,1,0,0,0-.68.22.72.72,0,0,0-.24.57.58.58,0,0,0,.17.43,1.2,1.2,0,0,0,.44.26,6.79,6.79,0,0,0,.75.2,8.48,8.48,0,0,1,1,.3,1.75,1.75,0,0,1,.68.49,1.39,1.39,0,0,1,.29.92,1.43,1.43,0,0,1-.54,1.15,2.21,2.21,0,0,1-1.46.44,2.78,2.78,0,0,1-1.72-.49,2,2,0,0,1-.79-1.38h1.15a1.05,1.05,0,0,0,.41.75,1.49,1.49,0,0,0,.95.29,1,1,0,0,0,.66-.22.75.75,0,0,0,.24-.57.64.64,0,0,0-.18-.47,1.14,1.14,0,0,0-.47-.27,4.23,4.23,0,0,0-.76-.2c-.41-.1-.74-.2-1-.29a1.55,1.55,0,0,1-.66-.47,1.34,1.34,0,0,1-.28-.88,1.43,1.43,0,0,1,.55-1.17,2.28,2.28,0,0,1,1.5-.45A2.4,2.4,0,0,1,232.8,63.9Z"/><path class="cls-1" d="M240,66.53h-4.37a1.78,1.78,0,0,0,.48,1.3,1.6,1.6,0,0,0,1.13.42,1.68,1.68,0,0,0,1-.29,1.25,1.25,0,0,0,.5-.8H240a2.5,2.5,0,0,1-.48,1.06,2.41,2.41,0,0,1-.93.73,3,3,0,0,1-1.29.26,2.9,2.9,0,0,1-1.46-.35,2.49,2.49,0,0,1-1-1,3.52,3.52,0,0,1,0-3.1,2.49,2.49,0,0,1,1-1,3.26,3.26,0,0,1,2.92,0,2.41,2.41,0,0,1,1,1,2.68,2.68,0,0,1,.34,1.35A2.47,2.47,0,0,1,240,66.53Zm-1.34-1.47a1.31,1.31,0,0,0-.57-.55,1.8,1.8,0,0,0-.8-.18,1.67,1.67,0,0,0-1.16.42,1.73,1.73,0,0,0-.5,1.25h3.22A1.74,1.74,0,0,0,238.67,65.06Z"/><path class="cls-1" d="M247.42,69.14l-1.82-2.91h-.83v2.91H243.6V61.86h2.56a2.68,2.68,0,0,1,1.89.61,2.12,2.12,0,0,1,.65,1.61,2,2,0,0,1-.48,1.4,2.23,2.23,0,0,1-1.39.7l1.91,3Zm-2.65-3.74h1.3c1,0,1.42-.42,1.42-1.26a1.22,1.22,0,0,0-.34-.93,1.52,1.52,0,0,0-1.08-.34h-1.3Z"/><path class="cls-1" d="M255,66.53h-4.37a1.83,1.83,0,0,0,.49,1.3,1.59,1.59,0,0,0,1.12.42,1.71,1.71,0,0,0,1-.29,1.25,1.25,0,0,0,.5-.8H255A2.41,2.41,0,0,1,253.57,69a3,3,0,0,1-1.29.26,2.86,2.86,0,0,1-1.45-.35,2.43,2.43,0,0,1-1-1,3.52,3.52,0,0,1,0-3.1,2.43,2.43,0,0,1,1-1,3.24,3.24,0,0,1,2.91,0,2.37,2.37,0,0,1,1,1A2.79,2.79,0,0,1,255,66,2.41,2.41,0,0,1,255,66.53Zm-1.33-1.47a1.28,1.28,0,0,0-.58-.55,1.77,1.77,0,0,0-.8-.18,1.65,1.65,0,0,0-1.15.42,1.74,1.74,0,0,0-.51,1.25h3.23A1.84,1.84,0,0,0,253.66,65.06Z"/><path class="cls-1" d="M258.5,67.92l1.61-4.46h1.25l-2.16,5.68h-1.42l-2.17-5.68h1.26Z"/><path class="cls-1" d="M267.47,66.53H263.1a1.78,1.78,0,0,0,.48,1.3,1.59,1.59,0,0,0,1.12.42,1.69,1.69,0,0,0,1-.29,1.25,1.25,0,0,0,.5-.8h1.26a2.5,2.5,0,0,1-.48,1.06A2.37,2.37,0,0,1,266,69a3,3,0,0,1-1.29.26,2.88,2.88,0,0,1-1.45-.35,2.43,2.43,0,0,1-1-1,3.52,3.52,0,0,1,0-3.1,2.43,2.43,0,0,1,1-1,3,3,0,0,1,1.45-.35,3,3,0,0,1,1.46.34,2.37,2.37,0,0,1,1,1,2.68,2.68,0,0,1,.34,1.35A3.49,3.49,0,0,1,267.47,66.53Zm-1.34-1.47a1.28,1.28,0,0,0-.58-.55,1.77,1.77,0,0,0-.8-.18,1.65,1.65,0,0,0-1.15.42,1.69,1.69,0,0,0-.5,1.25h3.22A1.74,1.74,0,0,0,266.13,65.06Z"/><path class="cls-1" d="M273.4,64a2.54,2.54,0,0,1,.6,1.82v3.31h-1.17V66a1.65,1.65,0,0,0-.4-1.18,1.38,1.38,0,0,0-1.07-.42,1.45,1.45,0,0,0-1.12.45,1.84,1.84,0,0,0-.42,1.31v3h-1.18V63.46h1.18v1.25a1.85,1.85,0,0,1,.76-1,2.25,2.25,0,0,1,1.24-.35A2,2,0,0,1,273.4,64Z"/><path class="cls-1" d="M280.61,63.46v5.68h-1.19V67.9a1.8,1.8,0,0,1-.75,1,2.25,2.25,0,0,1-1.25.34,2.07,2.07,0,0,1-1.59-.64,2.59,2.59,0,0,1-.59-1.82v-3.3h1.17v3.18a1.69,1.69,0,0,0,.39,1.19,1.4,1.4,0,0,0,1.08.41,1.47,1.47,0,0,0,1.12-.45,1.87,1.87,0,0,0,.42-1.32v-3Z"/><path class="cls-1" d="M287.26,66.53h-4.37a1.78,1.78,0,0,0,.48,1.3,1.59,1.59,0,0,0,1.12.42,1.71,1.71,0,0,0,1-.29,1.25,1.25,0,0,0,.5-.8h1.26a2.5,2.5,0,0,1-.48,1.06,2.37,2.37,0,0,1-.94.73,3,3,0,0,1-1.29.26,2.86,2.86,0,0,1-1.45-.35,2.43,2.43,0,0,1-1-1,3.52,3.52,0,0,1,0-3.1,2.43,2.43,0,0,1,1-1,3.24,3.24,0,0,1,2.91,0,2.37,2.37,0,0,1,1,1A2.79,2.79,0,0,1,287.3,66,3.49,3.49,0,0,1,287.26,66.53Zm-1.34-1.47a1.28,1.28,0,0,0-.58-.55,1.77,1.77,0,0,0-.8-.18,1.65,1.65,0,0,0-1.15.42,1.69,1.69,0,0,0-.5,1.25h3.22A1.74,1.74,0,0,0,285.92,65.06Z"/><g id="Слой_2-4" data-name="Слой 2"><g id="Layer_1-3" data-name="Layer 1"><path class="cls-1" d="M439.18,121.46H370.34a1.14,1.14,0,0,1-1-.55L335,61.29a1.12,1.12,0,0,1,0-1.12L369.37.56a1.12,1.12,0,0,1,1-.56h68.84a1.1,1.1,0,0,1,1,.56l34.42,59.61a1.12,1.12,0,0,1,0,1.12l-34.42,59.62A1.13,1.13,0,0,1,439.18,121.46ZM371,119.23h67.55l33.76-58.5L438.53,2.23H371L337.2,60.73Z"/><path class="cls-2" d="M435.16,113.8H374.35a.43.43,0,0,1-.36-.21l-30.4-52.65a.45.45,0,0,1,0-.42L374,7.87a.43.43,0,0,1,.36-.21h60.81a.41.41,0,0,1,.36.21l30.4,52.65a.45.45,0,0,1,0,.42l-30.4,52.65A.41.41,0,0,1,435.16,113.8ZM374.6,113h60.31l30.16-52.24L434.91,8.49H374.6L344.44,60.73Z"/><path class="cls-3" d="M435.17,114.3H374.35a1,1,0,0,1-.79-.45l-30.4-52.66a1,1,0,0,1,0-.9L373.56,7.62a.94.94,0,0,1,.78-.46h60.82a.94.94,0,0,1,.8.46l30.4,52.65a1,1,0,0,1,0,.9L436,113.84A.94.94,0,0,1,435.17,114.3Zm-60.28-1.8h59.74L464.5,60.76,434.63,9H374.89L345,60.73Z"/><path class="cls-2" d="M464.09,93.27a.6.6,0,0,1-.28-.08.55.55,0,0,1-.2-.75h0l18.3-31.7L463.61,29a.56.56,0,0,1,.23-.77.55.55,0,0,1,.77.22h0l18.46,32a.56.56,0,0,1,0,.56l-18.5,32A.55.55,0,0,1,464.09,93.27Z"/><path class="cls-2" d="M466,93.66a2.09,2.09,0,1,1-.77-2.86A2.08,2.08,0,0,1,466,93.66Z"/><path class="cls-2" d="M466,27.8a2.09,2.09,0,1,0-.77,2.86A2.08,2.08,0,0,0,466,27.8Z"/><path class="cls-2" d="M345.29,93.27a.57.57,0,0,1-.48-.28L326.36,61a.61.61,0,0,1,0-.56l18.47-32a.57.57,0,0,1,.78-.22.55.55,0,0,1,.22.77L327.49,60.73l18.3,31.7a.54.54,0,0,1-.19.75h0A.61.61,0,0,1,345.29,93.27Z"/><circle class="cls-2" cx="345.27" cy="28.84" r="2.09"/><path class="cls-2" d="M343.44,93.66a2.09,2.09,0,1,0,.77-2.86,2.09,2.09,0,0,0-.77,2.86Z"/></g></g><path class="cls-1" d="M383.07,54.15a2,2,0,0,1-.86.77,3,3,0,0,1-1.39.29,3.25,3.25,0,0,1-2-.6,2.11,2.11,0,0,1-.86-1.66h1.87a1,1,0,0,0,.29.64.92.92,0,0,0,.65.24.78.78,0,0,0,.54-.18.66.66,0,0,0,.19-.5.63.63,0,0,0-.18-.46,1.34,1.34,0,0,0-.45-.31c-.18-.08-.42-.17-.74-.28a9,9,0,0,1-1.13-.46,2.13,2.13,0,0,1-.75-.66,1.9,1.9,0,0,1-.32-1.14,1.92,1.92,0,0,1,.33-1.12,2.1,2.1,0,0,1,.92-.73,3.25,3.25,0,0,1,1.33-.25,2.94,2.94,0,0,1,1.93.58,2.17,2.17,0,0,1,.81,1.58h-1.9a1,1,0,0,0-.27-.57.77.77,0,0,0-.57-.21.76.76,0,0,0-.5.17.59.59,0,0,0-.19.48.64.64,0,0,0,.17.44,1.21,1.21,0,0,0,.43.29c.17.08.42.17.74.29a8.46,8.46,0,0,1,1.14.47,2.16,2.16,0,0,1,.77.68,1.93,1.93,0,0,1,.32,1.15A2,2,0,0,1,383.07,54.15Z"/><path class="cls-1" d="M387.67,49.62a1.9,1.9,0,0,1,.7.81v-1h1.75v5.75h-1.75v-1a1.9,1.9,0,0,1-.7.81,2.11,2.11,0,0,1-1.14.3,2.38,2.38,0,0,1-1.27-.35,2.44,2.44,0,0,1-.89-1,3.62,3.62,0,0,1-.32-1.56,3.68,3.68,0,0,1,.32-1.58,2.47,2.47,0,0,1,.89-1,2.38,2.38,0,0,1,1.27-.35A2.11,2.11,0,0,1,387.67,49.62Zm-1.48,1.61a1.71,1.71,0,0,0,0,2.07,1.29,1.29,0,0,0,1.82,0,1.44,1.44,0,0,0,.36-1,1.42,1.42,0,0,0-.36-1,1.29,1.29,0,0,0-1.82,0Z"/><path class="cls-1" d="M394,53.42l1.25-4h1.88l-2,5.75h-2.19l-2-5.75h1.88Z"/><path class="cls-1" d="M403.26,52.58h-4a1.34,1.34,0,0,0,.33.94,1.19,1.19,0,0,0,1.41.09.93.93,0,0,0,.34-.51h1.87a2.42,2.42,0,0,1-.5,1.09,2.51,2.51,0,0,1-1,.75,3.05,3.05,0,0,1-1.3.27,3.13,3.13,0,0,1-1.5-.35,2.55,2.55,0,0,1-1-1,3.13,3.13,0,0,1-.37-1.56,3.18,3.18,0,0,1,.37-1.58,2.51,2.51,0,0,1,1-1,3.2,3.2,0,0,1,1.51-.35,3,3,0,0,1,1.5.35,2.51,2.51,0,0,1,1,1,3,3,0,0,1,.35,1.46A2.79,2.79,0,0,1,403.26,52.58Zm-2-1.59a1.11,1.11,0,0,0-.77-.28,1.12,1.12,0,0,0-.81.29,1.22,1.22,0,0,0-.36.84h2.25A1.08,1.08,0,0,0,401.22,51Z"/><path class="cls-1" d="M411.53,47.85v1.41h-2v5.88h-1.78V49.26h-1.95V47.85Z"/><path class="cls-1" d="M412.39,47.11a1.07,1.07,0,0,1,.76-.27,1.1,1.1,0,0,1,.77.27.85.85,0,0,1,.29.66.88.88,0,0,1-.29.66,1.14,1.14,0,0,1-.77.26,1.11,1.11,0,0,1-.76-.26.88.88,0,0,1-.29-.66A.85.85,0,0,1,412.39,47.11ZM414,49.39v5.75h-1.76V49.39Z"/><path class="cls-1" d="M424.37,50A2.62,2.62,0,0,1,425,51.8v3.34h-1.76V52a1.14,1.14,0,0,0-.29-.85,1,1,0,0,0-.8-.31,1.07,1.07,0,0,0-.83.33,1.28,1.28,0,0,0-.3.91v3h-1.76V52a1.18,1.18,0,0,0-.29-.85,1,1,0,0,0-.8-.31,1.1,1.1,0,0,0-.83.32,1.27,1.27,0,0,0-.31.92v3h-1.76V49.39H417v1a1.69,1.69,0,0,1,.69-.76,2.09,2.09,0,0,1,1.1-.28,2.26,2.26,0,0,1,1.17.3,1.91,1.91,0,0,1,.76.87,2.3,2.3,0,0,1,.82-.85,2.1,2.1,0,0,1,1.15-.32A2.19,2.19,0,0,1,424.37,50Z"/><path class="cls-1" d="M431.56,52.58h-4a1.34,1.34,0,0,0,.33.94,1.2,1.2,0,0,0,1.42.09,1,1,0,0,0,.34-.51h1.86a2.41,2.41,0,0,1-.49,1.09,2.67,2.67,0,0,1-1,.75,3.1,3.1,0,0,1-1.31.27,3.19,3.19,0,0,1-1.5-.35,2.55,2.55,0,0,1-1-1,3.24,3.24,0,0,1-.37-1.56,3.18,3.18,0,0,1,.37-1.58,2.51,2.51,0,0,1,1-1,3.23,3.23,0,0,1,1.51-.35,3,3,0,0,1,1.5.35,2.45,2.45,0,0,1,1,1,2.9,2.9,0,0,1,.35,1.46A2,2,0,0,1,431.56,52.58Zm-2-1.59a1.12,1.12,0,0,0-.78-.28,1.15,1.15,0,0,0-.81.29,1.22,1.22,0,0,0-.36.84h2.25A1,1,0,0,0,429.53,51Z"/><path class="cls-1" d="M382.2,62.47a3.31,3.31,0,0,1,1.19,1.85h-1.24a2.32,2.32,0,0,0-.82-1,2.38,2.38,0,0,0-1.38-.39,2.1,2.1,0,0,0-2,1.24,3,3,0,0,0-.3,1.38,3,3,0,0,0,.3,1.38,2.11,2.11,0,0,0,2,1.23,2.38,2.38,0,0,0,1.38-.39,2.26,2.26,0,0,0,.82-1h1.24a3.29,3.29,0,0,1-1.19,1.84,3.58,3.58,0,0,1-2.23.67,3.43,3.43,0,0,1-1.82-.47,3.17,3.17,0,0,1-1.23-1.31,4.5,4.5,0,0,1,0-3.84,3.17,3.17,0,0,1,1.23-1.31,3.43,3.43,0,0,1,1.82-.48A3.59,3.59,0,0,1,382.2,62.47Z"/><path class="cls-1" d="M385.74,61.51v7.63h-1.17V61.51Z"/><path class="cls-1" d="M391.25,63.74a2.5,2.5,0,0,1,1,1,3.43,3.43,0,0,1,0,3.1,2.5,2.5,0,0,1-1,1,3.06,3.06,0,0,1-1.49.35,3,3,0,0,1-1.48-.35,2.57,2.57,0,0,1-1-1,3.43,3.43,0,0,1,0-3.1,2.57,2.57,0,0,1,1-1,3.14,3.14,0,0,1,1.48-.35A3.18,3.18,0,0,1,391.25,63.74Zm-2.32.88a1.45,1.45,0,0,0-.62.63,2.2,2.2,0,0,0-.23,1,2.23,2.23,0,0,0,.23,1,1.57,1.57,0,0,0,.62.63,1.78,1.78,0,0,0,.83.2,1.86,1.86,0,0,0,.84-.2,1.55,1.55,0,0,0,.61-.63,2.12,2.12,0,0,0,.23-1,2.09,2.09,0,0,0-.23-1,1.43,1.43,0,0,0-.61-.63,1.74,1.74,0,0,0-.84-.21A1.68,1.68,0,0,0,388.93,64.62Z"/><path class="cls-1" d="M397.25,63.9a2.16,2.16,0,0,1,.74,1.37h-1.12a1.19,1.19,0,0,0-.39-.75,1.28,1.28,0,0,0-.86-.29,1,1,0,0,0-.69.22.72.72,0,0,0-.24.57.58.58,0,0,0,.17.43,1.28,1.28,0,0,0,.44.26,7.47,7.47,0,0,0,.75.2,8.72,8.72,0,0,1,1,.3,1.82,1.82,0,0,1,.68.49,1.39,1.39,0,0,1,.28.92,1.43,1.43,0,0,1-.54,1.15,2.21,2.21,0,0,1-1.46.44,2.78,2.78,0,0,1-1.72-.49,2,2,0,0,1-.78-1.38h1.14a1.05,1.05,0,0,0,.41.75,1.49,1.49,0,0,0,.95.29,1,1,0,0,0,.66-.22.72.72,0,0,0,.25-.57.61.61,0,0,0-.19-.47,1.17,1.17,0,0,0-.46-.27,4.64,4.64,0,0,0-.77-.2c-.41-.1-.74-.2-1-.29a1.55,1.55,0,0,1-.66-.47,1.34,1.34,0,0,1-.27-.88,1.45,1.45,0,0,1,.54-1.17,2.28,2.28,0,0,1,1.5-.45A2.4,2.4,0,0,1,397.25,63.9Z"/><path class="cls-1" d="M404.46,66.53h-4.37a1.75,1.75,0,0,0,.49,1.3,1.57,1.57,0,0,0,1.12.42,1.68,1.68,0,0,0,1-.29,1.25,1.25,0,0,0,.5-.8h1.26a2.37,2.37,0,0,1-.47,1.06A2.44,2.44,0,0,1,403,69a3,3,0,0,1-1.29.26,2.9,2.9,0,0,1-1.46-.35,2.47,2.47,0,0,1-1-1,3.52,3.52,0,0,1,0-3.1,2.47,2.47,0,0,1,1-1,3,3,0,0,1,1.46-.35,3,3,0,0,1,1.46.34,2.5,2.5,0,0,1,1,1A2.78,2.78,0,0,1,404.5,66,2.47,2.47,0,0,1,404.46,66.53Zm-1.33-1.47a1.34,1.34,0,0,0-.58-.55,1.8,1.8,0,0,0-.8-.18,1.63,1.63,0,0,0-1.15.42,1.74,1.74,0,0,0-.51,1.25h3.23A1.84,1.84,0,0,0,403.13,65.06Z"/><path class="cls-1" d="M415.59,62v7.16h-1.18V63.77l-2.07,5.37h-1l-2.08-5.37v5.37h-1.17V62h1.42l2.37,5.72L414.17,62Z"/><path class="cls-1" d="M421.09,63.74a2.5,2.5,0,0,1,1,1,3.43,3.43,0,0,1,0,3.1,2.5,2.5,0,0,1-1,1,3.06,3.06,0,0,1-1.49.35,3,3,0,0,1-1.48-.35,2.57,2.57,0,0,1-1-1,3.43,3.43,0,0,1,0-3.1,2.57,2.57,0,0,1,1-1,3.14,3.14,0,0,1,1.48-.35A3.18,3.18,0,0,1,421.09,63.74Zm-2.32.88a1.45,1.45,0,0,0-.62.63,2.2,2.2,0,0,0-.23,1,2.23,2.23,0,0,0,.23,1,1.57,1.57,0,0,0,.62.63,1.78,1.78,0,0,0,.83.2,1.86,1.86,0,0,0,.84-.2,1.55,1.55,0,0,0,.61-.63,2.23,2.23,0,0,0,.23-1,2.2,2.2,0,0,0-.23-1,1.43,1.43,0,0,0-.61-.63,1.74,1.74,0,0,0-.84-.21A1.68,1.68,0,0,0,418.77,64.62Z"/><path class="cls-1" d="M425.62,63.69a2.41,2.41,0,0,1,1.24-.32v1.28h-.35a1.91,1.91,0,0,0-1.24.37,1.49,1.49,0,0,0-.47,1.25v2.87h-1.18V63.46h1.18v1.11A2.17,2.17,0,0,1,425.62,63.69Z"/><path class="cls-1" d="M433,66.53H428.6a1.78,1.78,0,0,0,.48,1.3,1.61,1.61,0,0,0,1.13.42,1.68,1.68,0,0,0,1-.29,1.25,1.25,0,0,0,.5-.8H433a2.49,2.49,0,0,1-.47,1.06,2.52,2.52,0,0,1-.94.73,3,3,0,0,1-1.29.26,2.9,2.9,0,0,1-1.46-.35,2.47,2.47,0,0,1-1-1,3.43,3.43,0,0,1,0-3.1,2.47,2.47,0,0,1,1-1,3,3,0,0,1,1.46-.35,3,3,0,0,1,1.46.34,2.5,2.5,0,0,1,1,1A2.78,2.78,0,0,1,433,66,2.47,2.47,0,0,1,433,66.53Zm-1.34-1.47a1.31,1.31,0,0,0-.57-.55,1.8,1.8,0,0,0-.8-.18,1.67,1.67,0,0,0-1.16.42,1.78,1.78,0,0,0-.5,1.25h3.23A1.74,1.74,0,0,0,431.63,65.06Z"/><g id="Layer_1-4" data-name="Layer 1"><path class="cls-1" d="M602.33,121.46H533.49a1.13,1.13,0,0,1-1-.55L498.1,61.29a1.12,1.12,0,0,1,0-1.12L532.52.56a1.12,1.12,0,0,1,1-.56h68.84a1.11,1.11,0,0,1,1,.56l34.42,59.61a1.12,1.12,0,0,1,0,1.12l-34.42,59.62A1.13,1.13,0,0,1,602.33,121.46Zm-68.2-2.23h67.55l33.76-58.5L601.68,2.23H534.13l-33.78,58.5Z"/><path class="cls-2" d="M598.31,113.8H537.5a.42.42,0,0,1-.36-.21l-30.4-52.65a.45.45,0,0,1,0-.42l30.4-52.65a.42.42,0,0,1,.36-.21h60.81a.41.41,0,0,1,.36.21l30.4,52.65a.45.45,0,0,1,0,.42l-30.4,52.65A.41.41,0,0,1,598.31,113.8Zm-60.56-.8h60.31l30.16-52.24L598.06,8.49H537.75L507.59,60.73Z"/><path class="cls-3" d="M598.31,114.3H537.5a1,1,0,0,1-.79-.45l-30.4-52.66a.93.93,0,0,1,0-.9L536.71,7.62a.94.94,0,0,1,.78-.46h60.82a.94.94,0,0,1,.8.46l30.4,52.65a1,1,0,0,1,0,.9L599.1,113.84A.91.91,0,0,1,598.31,114.3ZM538,112.5h59.73l29.88-51.74L597.77,9H538L508.17,60.73Z"/><path class="cls-2" d="M627.24,93.27a.57.57,0,0,1-.28-.08.55.55,0,0,1-.2-.75h0l18.3-31.7L626.76,29a.56.56,0,0,1,.23-.77.55.55,0,0,1,.77.22h0l18.46,32a.56.56,0,0,1,0,.56l-18.5,32A.55.55,0,0,1,627.24,93.27Z"/><path class="cls-2" d="M629.11,93.66a2.09,2.09,0,1,1-.77-2.86A2.08,2.08,0,0,1,629.11,93.66Z"/><path class="cls-2" d="M629.11,27.8a2.09,2.09,0,1,0-.77,2.86A2.08,2.08,0,0,0,629.11,27.8Z"/><path class="cls-2" d="M508.44,93.27A.56.56,0,0,1,508,93L489.51,61a.61.61,0,0,1,0-.56l18.47-32a.57.57,0,0,1,1,.55L490.64,60.73l18.3,31.7a.54.54,0,0,1-.19.75h0A.61.61,0,0,1,508.44,93.27Z"/><circle class="cls-2" cx="508.41" cy="28.84" r="2.09"/><path class="cls-2" d="M506.59,93.66a2.09,2.09,0,1,0,.77-2.86,2.09,2.09,0,0,0-.77,2.86Z"/></g><path class="cls-1" d="M541.4,54.15a2,2,0,0,1-.86.77,3,3,0,0,1-1.39.29,3.25,3.25,0,0,1-2-.6,2.11,2.11,0,0,1-.86-1.66h1.87a1,1,0,0,0,.3.64.88.88,0,0,0,.64.24.74.74,0,0,0,.53-.18.7.7,0,0,0,0-1,1.34,1.34,0,0,0-.45-.31c-.18-.08-.42-.17-.74-.28a9,9,0,0,1-1.13-.46,2.13,2.13,0,0,1-.75-.66,1.9,1.9,0,0,1-.32-1.14,1.92,1.92,0,0,1,.33-1.12,2.1,2.1,0,0,1,.92-.73,3.25,3.25,0,0,1,1.33-.25,2.94,2.94,0,0,1,1.93.58,2.17,2.17,0,0,1,.81,1.58h-1.9a1,1,0,0,0-.27-.57.77.77,0,0,0-.57-.21.74.74,0,0,0-.5.17.59.59,0,0,0-.19.48.64.64,0,0,0,.17.44,1.21,1.21,0,0,0,.43.29c.17.08.42.17.74.29a8.46,8.46,0,0,1,1.14.47,2.16,2.16,0,0,1,.77.68,1.93,1.93,0,0,1,.32,1.15A2,2,0,0,1,541.4,54.15Z"/><path class="cls-1" d="M546,49.62a1.9,1.9,0,0,1,.7.81v-1h1.75v5.75H546.7v-1a1.9,1.9,0,0,1-.7.81,2.11,2.11,0,0,1-1.14.3,2.38,2.38,0,0,1-1.27-.35,2.44,2.44,0,0,1-.89-1,3.62,3.62,0,0,1-.32-1.56,3.68,3.68,0,0,1,.32-1.58,2.47,2.47,0,0,1,.89-1,2.38,2.38,0,0,1,1.27-.35A2.11,2.11,0,0,1,546,49.62Zm-1.48,1.61a1.71,1.71,0,0,0,0,2.07,1.29,1.29,0,0,0,1.82,0,1.44,1.44,0,0,0,.36-1,1.42,1.42,0,0,0-.36-1,1.29,1.29,0,0,0-1.82,0Z"/><path class="cls-1" d="M552.32,53.42l1.25-4h1.88l-2,5.75h-2.19l-2-5.75h1.88Z"/><path class="cls-1" d="M561.59,52.58h-4a1.34,1.34,0,0,0,.33.94,1.19,1.19,0,0,0,1.41.09.93.93,0,0,0,.34-.51h1.87a2.42,2.42,0,0,1-.5,1.09,2.51,2.51,0,0,1-1,.75,3.07,3.07,0,0,1-1.31.27,3.12,3.12,0,0,1-1.49-.35,2.55,2.55,0,0,1-1-1,3.13,3.13,0,0,1-.37-1.56,3.18,3.18,0,0,1,.37-1.58,2.51,2.51,0,0,1,1-1,3.19,3.19,0,0,1,1.5-.35,3,3,0,0,1,1.51.35,2.42,2.42,0,0,1,1,1,2.9,2.9,0,0,1,.36,1.46A2.79,2.79,0,0,1,561.59,52.58Zm-2-1.59A1.24,1.24,0,0,0,558,51a1.22,1.22,0,0,0-.36.84h2.25A1.08,1.08,0,0,0,559.55,51Z"/><path class="cls-1" d="M572.81,47.9v7.24h-1.76V50.62l-1.57,4.52H568l-1.58-4.53v4.53h-1.76V47.9h2.15l2,5.05,1.93-5.05Z"/><path class="cls-1" d="M578.25,49.67a2.63,2.63,0,0,1,1.06,1,3.07,3.07,0,0,1,.39,1.57,3,3,0,0,1-.39,1.56,2.63,2.63,0,0,1-1.06,1,3.32,3.32,0,0,1-1.53.35,3.39,3.39,0,0,1-1.54-.35,2.57,2.57,0,0,1-1.06-1,3,3,0,0,1-.39-1.56,3.07,3.07,0,0,1,.39-1.57,2.57,2.57,0,0,1,1.06-1,3.39,3.39,0,0,1,1.54-.35A3.32,3.32,0,0,1,578.25,49.67Zm-2.38,1.54a1.77,1.77,0,0,0,0,2.11,1.13,1.13,0,0,0,.85.36,1.09,1.09,0,0,0,.84-.36,1.81,1.81,0,0,0,0-2.11,1.07,1.07,0,0,0-.84-.37A1.1,1.1,0,0,0,575.87,51.21Z"/><path class="cls-1" d="M585.84,50a2.67,2.67,0,0,1,.58,1.81v3.34h-1.76V52a1.26,1.26,0,0,0-.31-.9,1,1,0,0,0-.81-.33,1.1,1.1,0,0,0-.85.34,1.38,1.38,0,0,0-.31,1v3h-1.76V49.39h1.76v1a1.9,1.9,0,0,1,.73-.81,2.18,2.18,0,0,1,1.16-.3A2,2,0,0,1,585.84,50Z"/><path class="cls-1" d="M593,52.58h-4a1.34,1.34,0,0,0,.33.94,1.19,1.19,0,0,0,1.41.09,1,1,0,0,0,.34-.51H593a2.41,2.41,0,0,1-.49,1.09,2.67,2.67,0,0,1-1,.75,3.1,3.1,0,0,1-1.31.27,3.19,3.19,0,0,1-1.5-.35,2.53,2.53,0,0,1-1-1,3.13,3.13,0,0,1-.38-1.56,3.29,3.29,0,0,1,.37-1.58,2.53,2.53,0,0,1,1-1,3.19,3.19,0,0,1,1.5-.35,3.09,3.09,0,0,1,1.51.35,2.48,2.48,0,0,1,1,1,2.9,2.9,0,0,1,.36,1.46A2.79,2.79,0,0,1,593,52.58ZM591,51a1.24,1.24,0,0,0-1.58,0,1.14,1.14,0,0,0-.36.84h2.24A1,1,0,0,0,591,51Z"/><path class="cls-1" d="M595.29,49.39l1.38,3.52L598,49.39h1.95l-3.59,8.49h-1.93l1.35-3-2.42-5.53Z"/><path class="cls-1" d="M554.06,68.2a1.84,1.84,0,0,1-.78.73,2.67,2.67,0,0,1-1.29.28,3.13,3.13,0,0,1-1.33-.26,2.24,2.24,0,0,1-.94-.74,2.06,2.06,0,0,1-.4-1.09h1.26a1.26,1.26,0,0,0,.4.81,1.33,1.33,0,0,0,1,.35,1.16,1.16,0,0,0,.83-.29,1,1,0,0,0,.29-.75.92.92,0,0,0-.22-.64,1.52,1.52,0,0,0-.53-.4l-.88-.33a8.11,8.11,0,0,1-1.11-.43,2,2,0,0,1-.72-.63,2,2,0,0,1,0-2.11,1.81,1.81,0,0,1,.82-.69,3,3,0,0,1,1.24-.24,2.71,2.71,0,0,1,1.77.54,2,2,0,0,1,.74,1.4H552.9a1.26,1.26,0,0,0-.39-.71,1.24,1.24,0,0,0-.86-.29,1.2,1.2,0,0,0-.8.25.89.89,0,0,0-.29.73.88.88,0,0,0,.2.61,1.43,1.43,0,0,0,.52.38c.21.1.5.2.86.33a6.85,6.85,0,0,1,1.13.44,2,2,0,0,1,.74.64,1.8,1.8,0,0,1,.31,1.11A2,2,0,0,1,554.06,68.2Z"/><path class="cls-1" d="M560.73,66.53h-4.37a1.78,1.78,0,0,0,.48,1.3,1.61,1.61,0,0,0,1.13.42,1.68,1.68,0,0,0,1-.29,1.25,1.25,0,0,0,.5-.8h1.26a2.5,2.5,0,0,1-.48,1.06,2.41,2.41,0,0,1-.93.73,3,3,0,0,1-1.29.26,2.9,2.9,0,0,1-1.46-.35,2.56,2.56,0,0,1-1-1,3.52,3.52,0,0,1,0-3.1,2.56,2.56,0,0,1,1-1,3.26,3.26,0,0,1,2.92,0,2.5,2.5,0,0,1,1,1,2.78,2.78,0,0,1,.33,1.35A2.47,2.47,0,0,1,560.73,66.53Zm-1.34-1.47a1.31,1.31,0,0,0-.57-.55,1.8,1.8,0,0,0-.8-.18,1.67,1.67,0,0,0-1.16.42,1.73,1.73,0,0,0-.5,1.25h3.22A1.74,1.74,0,0,0,559.39,65.06Z"/><path class="cls-1" d="M567.14,66.53h-4.37a1.78,1.78,0,0,0,.48,1.3,1.61,1.61,0,0,0,1.13.42,1.68,1.68,0,0,0,1-.29,1.25,1.25,0,0,0,.5-.8h1.26A2.47,2.47,0,0,1,565.72,69a3,3,0,0,1-1.29.26,2.9,2.9,0,0,1-1.46-.35,2.47,2.47,0,0,1-1-1,3.43,3.43,0,0,1,0-3.1,2.47,2.47,0,0,1,1-1,3.26,3.26,0,0,1,2.92,0,2.5,2.5,0,0,1,1,1,2.78,2.78,0,0,1,.33,1.35A2.47,2.47,0,0,1,567.14,66.53Zm-1.34-1.47a1.31,1.31,0,0,0-.57-.55,1.8,1.8,0,0,0-.8-.18,1.67,1.67,0,0,0-1.16.42,1.73,1.73,0,0,0-.5,1.25H566A1.84,1.84,0,0,0,565.8,65.06Z"/><path class="cls-1" d="M574.55,69.14l-1.81-2.91h-.84v2.91h-1.17V61.86h2.56a2.68,2.68,0,0,1,1.89.61,2.12,2.12,0,0,1,.65,1.61,2,2,0,0,1-.48,1.4,2.23,2.23,0,0,1-1.39.7l1.91,3ZM571.9,65.4h1.3c.95,0,1.42-.42,1.42-1.26a1.22,1.22,0,0,0-.34-.93,1.52,1.52,0,0,0-1.08-.34h-1.3Z"/><path class="cls-1" d="M582.09,62.25a3.28,3.28,0,0,1,1.29,1.32,4,4,0,0,1,.47,1.92,3.9,3.9,0,0,1-.47,1.92,3.37,3.37,0,0,1-1.29,1.33,3.75,3.75,0,0,1-3.67,0,3.37,3.37,0,0,1-1.29-1.33,3.8,3.8,0,0,1-.48-1.92,3.85,3.85,0,0,1,.48-1.92,3.28,3.28,0,0,1,1.29-1.32,3.75,3.75,0,0,1,3.67,0Zm-3.08.93a2.23,2.23,0,0,0-.85.92,3.37,3.37,0,0,0,0,2.78,2.17,2.17,0,0,0,.85.92,2.47,2.47,0,0,0,1.25.32,2.4,2.4,0,0,0,1.23-.32,2.23,2.23,0,0,0,.85-.92,3.37,3.37,0,0,0,0-2.78,2.29,2.29,0,0,0-.85-.92,2.4,2.4,0,0,0-1.23-.32A2.47,2.47,0,0,0,579,63.18Z"/><path class="cls-1" d="M586.21,61.86v7.28H585V61.86Z"/></g></g></svg>